<mxfile host="app.diagrams.net" agent="Mozilla/5.0 (X11; Linux x86_64) AppleWebKit/537.36 (KHTML, like Gecko) Chrome/136.0.0.0 Safari/537.36" version="27.0.2">
  <diagram name="Page-1" id="7kj5YZ2X1cgveNYowElL">
    <mxGraphModel dx="2032" dy="765" grid="1" gridSize="10" guides="1" tooltips="1" connect="1" arrows="1" fold="1" page="1" pageScale="1" pageWidth="850" pageHeight="1100" math="0" shadow="0">
      <root>
        <mxCell id="0" />
        <mxCell id="1" parent="0" />
        <mxCell id="MhYocC3-HSQ2pXqJ2PAP-1" value="&lt;font style=&quot;font-size: 21px;&quot;&gt;Rocket&lt;/font&gt;" style="rounded=1;whiteSpace=wrap;html=1;fillColor=#fad7ac;strokeColor=#b46504;" parent="1" vertex="1">
          <mxGeometry x="350" y="200" width="120" height="80" as="geometry" />
        </mxCell>
        <mxCell id="6SV96YwUpE69g-SIMWA9-39" style="edgeStyle=orthogonalEdgeStyle;rounded=0;orthogonalLoop=1;jettySize=auto;html=1;entryX=0;entryY=0.5;entryDx=0;entryDy=0;" parent="1" source="MhYocC3-HSQ2pXqJ2PAP-2" target="MhYocC3-HSQ2pXqJ2PAP-1" edge="1">
          <mxGeometry relative="1" as="geometry" />
        </mxCell>
        <mxCell id="MhYocC3-HSQ2pXqJ2PAP-2" value="&lt;font style=&quot;font-size: 21px;&quot;&gt;Gimbal&lt;/font&gt;" style="rounded=1;whiteSpace=wrap;html=1;fillColor=#fad7ac;strokeColor=#b46504;" parent="1" vertex="1">
          <mxGeometry x="160" y="200" width="120" height="80" as="geometry" />
        </mxCell>
        <mxCell id="MhYocC3-HSQ2pXqJ2PAP-3" value="&lt;span style=&quot;font-size: 21px;&quot;&gt;IMU&lt;/span&gt;" style="rounded=1;whiteSpace=wrap;html=1;fillColor=#fad7ac;strokeColor=#b46504;" parent="1" vertex="1">
          <mxGeometry x="590" y="130" width="120" height="60" as="geometry" />
        </mxCell>
        <mxCell id="6SV96YwUpE69g-SIMWA9-38" style="edgeStyle=orthogonalEdgeStyle;rounded=0;orthogonalLoop=1;jettySize=auto;html=1;entryX=0.5;entryY=1;entryDx=0;entryDy=0;" parent="1" source="MhYocC3-HSQ2pXqJ2PAP-5" target="MhYocC3-HSQ2pXqJ2PAP-2" edge="1">
          <mxGeometry relative="1" as="geometry" />
        </mxCell>
        <mxCell id="6SV96YwUpE69g-SIMWA9-58" style="edgeStyle=orthogonalEdgeStyle;rounded=0;orthogonalLoop=1;jettySize=auto;html=1;entryX=0;entryY=0.5;entryDx=0;entryDy=0;" parent="1" source="MhYocC3-HSQ2pXqJ2PAP-5" target="6SV96YwUpE69g-SIMWA9-6" edge="1">
          <mxGeometry relative="1" as="geometry" />
        </mxCell>
        <mxCell id="MhYocC3-HSQ2pXqJ2PAP-5" value="&lt;font style=&quot;font-size: 21px;&quot;&gt;Allocator&lt;/font&gt;" style="rounded=1;whiteSpace=wrap;html=1;fillColor=#b0e3e6;strokeColor=#0e8088;" parent="1" vertex="1">
          <mxGeometry x="160" y="380" width="120" height="80" as="geometry" />
        </mxCell>
        <mxCell id="6SV96YwUpE69g-SIMWA9-37" style="edgeStyle=orthogonalEdgeStyle;rounded=0;orthogonalLoop=1;jettySize=auto;html=1;entryX=1;entryY=0.5;entryDx=0;entryDy=0;exitX=0;exitY=0.75;exitDx=0;exitDy=0;" parent="1" source="6SV96YwUpE69g-SIMWA9-1" target="6SV96YwUpE69g-SIMWA9-6" edge="1">
          <mxGeometry relative="1" as="geometry">
            <Array as="points">
              <mxPoint x="710" y="420" />
            </Array>
          </mxGeometry>
        </mxCell>
        <mxCell id="6SV96YwUpE69g-SIMWA9-43" style="edgeStyle=orthogonalEdgeStyle;rounded=0;orthogonalLoop=1;jettySize=auto;html=1;entryX=0.999;entryY=0.4;entryDx=0;entryDy=0;entryPerimeter=0;" parent="1" target="6SV96YwUpE69g-SIMWA9-45" edge="1">
          <mxGeometry relative="1" as="geometry">
            <mxPoint x="750" y="570" as="targetPoint" />
            <mxPoint x="730" y="440" as="sourcePoint" />
            <Array as="points">
              <mxPoint x="760" y="440" />
              <mxPoint x="760" y="600" />
            </Array>
          </mxGeometry>
        </mxCell>
        <mxCell id="6SV96YwUpE69g-SIMWA9-1" value="&lt;font style=&quot;font-size: 21px;&quot;&gt;Variables &amp;amp;&lt;/font&gt;&lt;div&gt;&lt;font style=&quot;font-size: 21px;&quot;&gt;flight phase&lt;/font&gt;&lt;/div&gt;" style="rounded=1;whiteSpace=wrap;html=1;fillColor=#fad9d5;strokeColor=#ae4132;" parent="1" vertex="1">
          <mxGeometry x="710" y="340" width="120" height="100" as="geometry" />
        </mxCell>
        <mxCell id="6SV96YwUpE69g-SIMWA9-6" value="&lt;font style=&quot;font-size: 21px;&quot;&gt;SD-Logger&lt;/font&gt;" style="rounded=1;whiteSpace=wrap;html=1;fillColor=#fad9d5;strokeColor=#ae4132;" parent="1" vertex="1">
          <mxGeometry x="365" y="380" width="120" height="80" as="geometry" />
        </mxCell>
        <mxCell id="6SV96YwUpE69g-SIMWA9-10" value="&lt;span style=&quot;font-size: 21px;&quot;&gt;Barometer&lt;/span&gt;" style="rounded=1;whiteSpace=wrap;html=1;fillColor=#fad7ac;strokeColor=#b46504;" parent="1" vertex="1">
          <mxGeometry x="750" y="130" width="120" height="60" as="geometry" />
        </mxCell>
        <mxCell id="6SV96YwUpE69g-SIMWA9-11" value="&lt;span style=&quot;font-size: 21px;&quot;&gt;LoRa&lt;/span&gt;" style="rounded=1;whiteSpace=wrap;html=1;fillColor=#fad7ac;strokeColor=#b46504;" parent="1" vertex="1">
          <mxGeometry x="910" y="130" width="120" height="60" as="geometry" />
        </mxCell>
        <mxCell id="6SV96YwUpE69g-SIMWA9-18" value="" style="edgeStyle=orthogonalEdgeStyle;rounded=0;orthogonalLoop=1;jettySize=auto;html=1;" parent="1" edge="1">
          <mxGeometry relative="1" as="geometry">
            <mxPoint x="700" y="190" as="sourcePoint" />
            <mxPoint x="700" y="240" as="targetPoint" />
            <Array as="points">
              <mxPoint x="700" y="200" />
              <mxPoint x="700" y="200" />
            </Array>
          </mxGeometry>
        </mxCell>
        <mxCell id="6SV96YwUpE69g-SIMWA9-12" value="&lt;span style=&quot;font-size: 21px;&quot;&gt;Madwick filter&lt;/span&gt;" style="rounded=1;whiteSpace=wrap;html=1;fillColor=#b0e3e6;strokeColor=#0e8088;" parent="1" vertex="1">
          <mxGeometry x="630" y="240" width="120" height="60" as="geometry" />
        </mxCell>
        <mxCell id="6SV96YwUpE69g-SIMWA9-13" value="&lt;span style=&quot;font-size: 21px;&quot;&gt;Altitude calculator&lt;/span&gt;" style="rounded=1;whiteSpace=wrap;html=1;fillColor=#b0e3e6;strokeColor=#0e8088;" parent="1" vertex="1">
          <mxGeometry x="800" y="240" width="120" height="60" as="geometry" />
        </mxCell>
        <mxCell id="6SV96YwUpE69g-SIMWA9-19" value="" style="edgeStyle=orthogonalEdgeStyle;rounded=0;orthogonalLoop=1;jettySize=auto;html=1;" parent="1" edge="1">
          <mxGeometry relative="1" as="geometry">
            <mxPoint x="670" y="190" as="sourcePoint" />
            <mxPoint x="670" y="240" as="targetPoint" />
            <Array as="points">
              <mxPoint x="670" y="200" />
              <mxPoint x="670" y="200" />
            </Array>
          </mxGeometry>
        </mxCell>
        <mxCell id="6SV96YwUpE69g-SIMWA9-20" value="" style="edgeStyle=orthogonalEdgeStyle;rounded=0;orthogonalLoop=1;jettySize=auto;html=1;" parent="1" edge="1">
          <mxGeometry relative="1" as="geometry">
            <mxPoint x="640" y="190" as="sourcePoint" />
            <mxPoint x="640" y="240" as="targetPoint" />
            <Array as="points">
              <mxPoint x="640" y="200" />
              <mxPoint x="640" y="200" />
            </Array>
          </mxGeometry>
        </mxCell>
        <mxCell id="6SV96YwUpE69g-SIMWA9-21" value="" style="edgeStyle=orthogonalEdgeStyle;rounded=0;orthogonalLoop=1;jettySize=auto;html=1;entryX=0;entryY=0.5;entryDx=0;entryDy=0;" parent="1" target="6SV96YwUpE69g-SIMWA9-1" edge="1">
          <mxGeometry relative="1" as="geometry">
            <mxPoint x="610" y="190" as="sourcePoint" />
            <mxPoint x="610" y="240" as="targetPoint" />
            <Array as="points">
              <mxPoint x="610" y="390" />
            </Array>
          </mxGeometry>
        </mxCell>
        <mxCell id="6SV96YwUpE69g-SIMWA9-23" value="" style="edgeStyle=orthogonalEdgeStyle;rounded=0;orthogonalLoop=1;jettySize=auto;html=1;entryX=0;entryY=0.25;entryDx=0;entryDy=0;" parent="1" target="6SV96YwUpE69g-SIMWA9-1" edge="1">
          <mxGeometry relative="1" as="geometry">
            <mxPoint x="670" y="300" as="sourcePoint" />
            <mxPoint x="690.2" y="365" as="targetPoint" />
            <Array as="points">
              <mxPoint x="670" y="365" />
            </Array>
          </mxGeometry>
        </mxCell>
        <mxCell id="6SV96YwUpE69g-SIMWA9-24" value="" style="edgeStyle=orthogonalEdgeStyle;rounded=0;orthogonalLoop=1;jettySize=auto;html=1;" parent="1" edge="1">
          <mxGeometry relative="1" as="geometry">
            <mxPoint x="840" y="190" as="sourcePoint" />
            <mxPoint x="840" y="240" as="targetPoint" />
            <Array as="points">
              <mxPoint x="840" y="200" />
              <mxPoint x="840" y="200" />
            </Array>
          </mxGeometry>
        </mxCell>
        <mxCell id="6SV96YwUpE69g-SIMWA9-25" value="" style="edgeStyle=orthogonalEdgeStyle;rounded=0;orthogonalLoop=1;jettySize=auto;html=1;exitX=1;exitY=0.5;exitDx=0;exitDy=0;" parent="1" source="MhYocC3-HSQ2pXqJ2PAP-3" edge="1">
          <mxGeometry relative="1" as="geometry">
            <mxPoint x="809.8" y="190" as="sourcePoint" />
            <mxPoint x="809.8" y="240" as="targetPoint" />
            <Array as="points">
              <mxPoint x="730" y="160" />
              <mxPoint x="730" y="210" />
              <mxPoint x="810" y="210" />
            </Array>
          </mxGeometry>
        </mxCell>
        <mxCell id="6SV96YwUpE69g-SIMWA9-28" value="" style="edgeStyle=orthogonalEdgeStyle;rounded=0;orthogonalLoop=1;jettySize=auto;html=1;entryX=1;entryY=0.25;entryDx=0;entryDy=0;" parent="1" edge="1">
          <mxGeometry relative="1" as="geometry">
            <mxPoint x="859.83" y="300" as="sourcePoint" />
            <mxPoint x="830" y="365" as="targetPoint" />
            <Array as="points">
              <mxPoint x="860" y="365" />
            </Array>
          </mxGeometry>
        </mxCell>
        <mxCell id="6SV96YwUpE69g-SIMWA9-29" value="" style="edgeStyle=orthogonalEdgeStyle;rounded=0;orthogonalLoop=1;jettySize=auto;html=1;entryX=1;entryY=0.5;entryDx=0;entryDy=0;" parent="1" target="6SV96YwUpE69g-SIMWA9-1" edge="1">
          <mxGeometry relative="1" as="geometry">
            <mxPoint x="969.83" y="190" as="sourcePoint" />
            <mxPoint x="940" y="255" as="targetPoint" />
            <Array as="points">
              <mxPoint x="970" y="390" />
            </Array>
          </mxGeometry>
        </mxCell>
        <mxCell id="6SV96YwUpE69g-SIMWA9-30" value="" style="swimlane;startSize=0;dashed=1;dashPattern=8 8;" parent="1" vertex="1">
          <mxGeometry x="550" y="100" width="510" height="370" as="geometry">
            <mxRectangle x="550" y="80" width="50" height="40" as="alternateBounds" />
          </mxGeometry>
        </mxCell>
        <mxCell id="r87C55WO3ufg_aptm7hn-1" value="" style="shape=image;verticalLabelPosition=bottom;labelBackgroundColor=default;verticalAlign=top;aspect=fixed;imageAspect=0;image=data:image/png,iVBORw0KGgoAAAANSUhEUgAAAHYAAAC8CAYAAACt1FrDAAAACXBIWXMAAA7EAAAOxAGVKw4bAAALh0lEQVR42u1daZBVxRU+QBLXqIAxKQXRyYgbIIsLahQsF7TG3RpFIjoCIoKMUQfQcoEolriUCBoERZERZVEBE42iSQSXFIWVmAgYBZQRRCXgMqCi0Wj65PWUfXvee7ffu7e7b585X9X5Qw19ur/v3T69ngZgZB3HC3td2DZhLwnryJSEjwphnwv7XrF/CmvN1ISNkZqoTXY6UxM2RhQQdjZTEzZOLCDsx8LaMD3hYoc8MbbJqpiesLGwgLDPMTVh4+QCwn4nrDvTEy5aCVtRQNxXeOoTNgYWEBZtHNMT9le7uEiXPIwpChddhX1TQNz/ChslfwDksIewfsKGEra/FemS0ebJKRIZ3CV/td+zwVJhbSmIegSL2cx+R0HYGhaymb1GQdg+LGQzm0plKjBdDvtZVIAlwtpRGkB1EnaWsFphYwjZLENBP5HzWV6JCgCHCtsUIyj2VPVyuscIAL8StiVG1AZhxzJV4aCH7FqLiTqfWixt6aL+h9eGw0MHYR8VEXWrXDZlBITthS0rIioK3otpCg/1MaJWMkXhoaqIqDgy7skUhYlniwyUTmJ6wsWLBYStYWrCRr4zTQ8xLTSA93Q2QO5WHW5q/IQpoQVexGcwGAwGg8FgMBgMBoPBYDAYDAaDwUgCvDayHnKHs49mOmgAL3ytgR82v+9gSmigC0RPNVQzJTRwBUQTeLRnSmhggSLs60wHDeARlc2KsBOZEhrorsXXM5kSGvgNRC8Xc3wlGF//wXTQmb+qKQImMSU0cIgWX89mSujNXzG+7s6U0MB8Rdg3mA6a8XUyU0ID3bT4eg5TQgO1WnzlxFhE8KQi7HKmg2Z8vZcpoYGuwPuvJDFSi68/Z0po4AlF2JVMB534uhGI5dVnNI+v5zIl9OIr2p5MCb34+ibTQTO+3seU0IB+frg/U0IDl3N8pYnHFVHfYjpoxtepTAkNHKx1w+czJTQwQhN2L6aEBuYpoq5iOujEV/U5lPuZEho4SOuGf82U0MBwTdiOTAkNzFVEXc100IyvDzAlNOPrBUwJDVymCbs3UxIPPE2PF5swfc4jkHu37U75b10zUsc5iqjvWPa1HeTyRU2Scf12yD0nGgR2FTYWcomu4t4Tf1fYaMi9wOgrvn4Ibh4vOlXYWsj/BDfeC/pRlgch+CV+DGaPxKv2nrBTPNT5AK0eF1ryUycFLMbBlCyKivda8j24h4/tLRY2Q9itkDvxt6pAw76F3H6oSwzT6tDJgo8BBqI2WaYeJqyQXar+zin+SvMdtMYu58EijXP5PPVsxe9aC+W3L7EH+1NWRMWubINWuUchPrPKjhDd+1TtK2GHOar/B4rfGRbKH1VGWNrHt6g/077U7+TUwRQPFWnc32XMton9wf5Tns+XIazXdWp8IfFViOYXHFxiGVfFNNB2oqxLHXwpr5Uh7D0+hZ2gVebKMsqo8Rxv1PjaYMnHo2UIu9CXqH3lF9pUkflldpuDYxqIsXZnR/F1piUfx5QwIm6yJb664Le1BYbdyixrrEEjT3YUXy+2yNktJQrrJTvNNVolqhKUVW/QSFtTn6GanwrLCzf3lyCs87QI7YQ1KhV4IWF5KwwaOdZSWx5TfKxzwF0bGTtNhP2ra2F/q60SHZKgrN0NY89tltqizr3rHfGHa+irDdq8yKWoWKlPFeezEpZ3puGvd7SFtnTWfAx2yGNfgx/0Yy6FvU5zfnjC8u4xFNbGpahLNB+Vjnu+OTFtnuCqIrilpqbGWZqwvNbaVKOY2ViUV+eW6z0MQLvGfLXO1srPTXnJq6+hqLYWDTakGFLKxQtF2u1s+1Ldjtss57JJMMVQWBuPFu2n+RjiSdhiizMVLiqwlxwBp3XCAIf9Gw2F7eUgvu7nSdj2BbrjrWB/8+P/qNMcn5awvH6Gotq6OzNL8bEB/CLfgYOlrpwvVpxugeRnk2YZCnuzpfa8D9F9Y5/INzp2cqa5rbBvFKdzE5aHC/qfGwp7sIX2VGo+hnoWdnyedl/mwvFZKc8pLwK/i+BDND/7exa2ztG4ohluVBxug/J3cUyG+KpdY6k9jyg+PgD/0EfG21KYcRihl7IwMT5hWR0guodbyPBvbJ3EX6/4mZ1BYZ0u/reBdDa7Rxt+rS9aakcl+DsJadoVT4AAsdxQ2CGOvo4DMsDJ7Vqd+oUmag9DUdOI4ybxdaOrRYAYPA3Rg/U7hSbsXYbCzrNYh/cUP3MywkuDUqeXQxMVT/1/aCjsGZbq8Esfc8UY6EuKN4Um7CmGouI1iO0cxdcDM8BLtVan40IT1vRcrc30sfUZjK/TlDp9Cf6ukZYFnCZ9YSjs0Rbrsc5RHC8F6tWYhaF9recZirrW4lekx9fhGeDlcHBzJ9ca5hoKa3PgMAjsby6UiknaNKddSKJizNhiKGwXR/H13xmIrzhLUFMPLQrtaz3DUNQ1luuhzl+fyAAvp0M2juaUjRng71xTE/bVfF2eAV5e0qZ4O4YkKnZ3psdLj3IYX7t45uUwrT63hva1mq4N44nH1hbrMVPxtSkD8VV9zwfXxYN7SOJaQ2HnWq5Hg+LrSc+c4GhcPe0Z5Hu0iwyFvcRhfK31zMmz2tcaXNpc3JhvNBTW5sHoGs1XN4+c6Edubw7xa+1mKOpGy/V42GEsj/uhvwHRu0I7hShsf0Nhf2+5HmrOwgUe+dAzlw+AQHGjobC3WKzDPpqvKzxxgaFmK0Q301uFKuxEQ2FtJvPQzy9398ADdv1LIJoBoCcEjAcMhT3NYh1maKs7PuLr1RQGTCpM7+Yc7yi++tjrxDnrl0odlgn7cejCPgh+lxI7QfKMcUmApyzVPFh4V6kzEMDdnr9YPb66TMuOXf7TkK2LX6nhBkNhqy35VzOqfirnka5wG2QkJ6INVBsKa+uX/K7DubKKAVr7VgrbhZKwBxkKO96C7701H1c5avMJkFv/VXeSKoAYMM58ZCDsXxzEVxd3TXtrixB4huk4IIqZBsLisdS074Kq8fUzB/H1UIhmq0MbBIRxqmF33Ddlv+8oZf/Bchv7QPNdrHFAHNgdrzIQ9uEUfXbUyq6z2L4qbQEC7TpoIRhiIOzXkF4e/oFa2bZeARkJ0YQreLFqFLQg4Fdr8tDB4yn5U1e8Gi3EVxwPTIPmj0XVQAtED20aYPM5kjVKec+k3A68JrJMq/NncprTYjHIQFiMV0emGF/TzHF8YZ5B0luQjasi3nGTgbiNCUbJF0C6uZSbvtJ8jyHhbb2fsqQ/4AaIz6yNMetqKH3/dDpE0wImea4Td2cm5Bn14iLEpSxjflRrqzSFDBNFHlFmfP1jmXXDG2/XQ+7gm14fvJZRwfIVB+5NLjZcwHhOzhmLjXA7aP9nTIn1wWXHKQV+cHhNBZcpW7FsZmglCWswFBgJngq5m2rtYuJr7xjfeL0T32idKAdB+fxtkeOCXViq8ueGGLdWQGkvSb0t57940vHPEF1/xgeKMSNLpezOMblJrZyDvgrFUydslmW2Z2nSw7GS/E1Q+iN/SQwHdK9ALrPMDiyDPeCIFhON4DLdU5C7hZ62mI2y7FoeFPkF5j3sLwdG98mR75uQe60yTkDc8cFLYpMhdyq/d8LpEMMB1Ft9y+XX11ZaG6Yn3C5bTV4yiSmhgd5at3sOU0IDo7WR7R5MCQ2oB7NXMh00gAMj9RDZFKaEBnqC/adIGR5wpSbsnkwJDSwA+2/gMRwDd4bU9eTpTAkNdNG64YFMCQ2MAPtPfTM8QE1uvY7poAP1ffWZTAcNdNa64cFMCQ0M04StZEpoYJ4i6vtMBw201uavHF+JQM9aXsOU0EAdz19pQs3QvZrpoAE8WK5ewZjGlNDAMcD7ryQxDqLnm37BlNDAyxA9P8wgAHwi7GtF2MlMCQ300eJrFVNCA2MUUfGuzs5MCQ3MV4R9numgAzV133Cmg9ZUB7vgf0FgT15nBf8DenwHD4kJakoAAAAASUVORK5CYII=;" vertex="1" parent="6SV96YwUpE69g-SIMWA9-30">
          <mxGeometry x="100" y="215" width="18.83" height="30" as="geometry" />
        </mxCell>
        <mxCell id="r87C55WO3ufg_aptm7hn-3" value="" style="shape=image;verticalLabelPosition=bottom;labelBackgroundColor=default;verticalAlign=top;aspect=fixed;imageAspect=0;image=data:image/png,iVBORw0KGgoAAAANSUhEUgAAAF8AAABICAYAAACQnynWAAAACXBIWXMAAA7EAAAOxAGVKw4bAAAGvUlEQVR42u1ce2wWRRAfaC3iC1FQUUDRGkVriAYMGqnPQFFiTBDjA40CUeMDXyj8YQy2CRGrJkaBGGkNEik0JEVFaXwGERQLAkKxxYopIkqsIAWxlFrdybefXrd7+7jbuxu5b5L5q9/Mzvy6tzs7O7MAbqkP4yLGvSDdNIbxCsZ7GLcwXst4KuNjohgsj3E54zbGfzPewPi4FIKOk24Bx0DGmxkPcD3oLMlAD6YM+HzGtQrgs7ye/9YJjWL8l2SQeSkDv9wA+CxPdTFgAeOtEuX4z7gkRcAPZXzYAvxGxj3CDjrdR/mrKZv1L1sAn+VhYQYcyHi/ROn2FG626wOA/1CYAaskCjsZX53CKKchAPhzgw52lY/CV1Ia1y8MAP7yoDH9ZomybYyPTSn4F3jOOKb8eZCB7pQo6mB8ecpPtZMtwa8LMutl69tzkCPgy64p+J+4mPVbcrmcf+kovpyYgL/MdtY3SqKbUTnMu9DpkEmo6cBfYKN0okTBwhzWUrrPAPwXbRR+IwjvgwgydEcI5RnE/saJx2KJ8FM5jJV0lwb8ElNF1YLgLojoYuAIoqM1a/+5phtIu8u8RIrodR/g8VxUYKLgWUGwORdaGtMEH/C3mgjn8yXGKzglh6kx9fMBv8pEeKwgtJuvZTkyp90S8KebCL4hCJXmsLSmlUEiHVzXf/cItPPNN0d2VC0BX3s+ukkQWETQsf78vDGH70V5BG2sEHD80URosSBELWWMd6C/gKPboQhJzHRW6wR6Mz7gEfgBHNy2OySMwholn3MbOKyJcURvCjY+phMoCZMESvjofhoxW5cL9o3UCbwkCFxGzKEvFOD3JmZrg/Blag+oWzwCOxn3JOTMYMjcI8iAbyGY3+nw2LdKJ3AG0K5IeFgx6z8iZusIwb6ZOoF7BIGx/4O4Ocuzidk6TbCvWCfwFnTNvp1AzKFdCvBHE7P1XY9tf4BBJvM7j8A6Ys4UKoA/SGyzxY211WNfrU6gr7CZUSvzvlsBfi0xW8VwXXvzdx3QbnCYrwD/cWK2zhPsK9IJiCXf1MpCNijAv5DYktMiZAi0tBQss28xUk++afk1G1CiCUHC9SbomkKmlCU8WzHry4inFLThOiakvK0tzcQcul4BfhEhOwcIOB4Ag9u/IYJDG4mB/4QP8PXE7HxSsG+JidA1gtAaYk75lWE8Q8jGfL65eu0bbyI4SRD6mPBp0VuoW0jIxtsE+1pND35lxMFfLQH/U2I2fg0BC4nFtvUviTlWLwF/IiH7RkvsG2cqXAPd3wmgQniFKda/7CWWy/kMul+UG4fqHwjCO4jndCh9meMl9s20UbAGurfwU6jJPB7kaeRDQKNSGtPE26B7IeyZNko2ShwcSsA5VTLtSgL2zZDYVWOrpEmi5EZiOZJQn3YEhMm8PyV2jbRVtEOipDxBx84CfWNZkqdbPFCtk9gUKET/VqJoU0KO9fUJLWV8UUI2lvnYc20QZXU+J8i408q9+OHJtJk4iYKum0FevhI4AvNzeFrMkcNSsGujx6xh/xhtvBi6llJ6eUxQpYt9FH4Pmc7qqAnDxvcVILcq/hbX8wOF/PDk/A65VOHcAxE7dSLImwi8Pb+q+sw2PiOjpPMY/wT+DW6h9p47FM5hk8TAiJwawb8u1dKClb39QP9uWVQvXGE5+s+KseeHHWC4xrmvHJ8oe3BQD2nGXQv/lX03a377Dhi2WFoQPuVyUDMxQwclBZp1NftMSR8HDhUZRjS4sXmbhSsMZD5kfJIDG0+G7rX1Mp7k6r9cYzAY5jGuCLFuYura9BnEewX5GwzlcG2+BYI1dGCmFEto9hqM857LT+x+Q+cwxsUb+nEGyTdsopvCZ3qnRQhZ4XMG2GehA9Pij0CmrNwkVVCq2FRF3gOOGwQHg/x1WN3SgBnRSsg0VWDYh9Vay/hG2gn2j7+tVKzdcwPoy1ZjrOCb42xu5xw+e3cG0HdrFDt7bUDnXHETj2xUOZ/2hG2cFVU8W5KgU1ghPcjAxsoEbcQTeKSdOqsScKrBYg0dZLn2u+I6iOECZ1jMnzYWwNp2EU6OGXi8bDolrgTS0zE5VRViNr0Wk42reZo7NsIYuTpCh/ZD+Odj8kD+prNLroSE7rIxm7kkAofwMDfEkY24+T0fMKRV8W+Mb4eECZ2b4WgPwINWVK+MY9HSdgc2HubnlFOBEJ3Pv4IOS2da+GFmeEyXMfim5aYAoKOdLzA+BwgTzgjs1cKW0XpudAdfw7G+BusVF/Gv5VJIrsECk3eP8gmDNv3Ks5MdPDWAoe3bkLmLLYYEHsz4B0O2K4Y3CskGAAAAAElFTkSuQmCC;" vertex="1" parent="6SV96YwUpE69g-SIMWA9-30">
          <mxGeometry x="43" y="228" width="15" height="11.34" as="geometry" />
        </mxCell>
        <mxCell id="r87C55WO3ufg_aptm7hn-4" value="" style="shape=image;verticalLabelPosition=bottom;labelBackgroundColor=default;verticalAlign=top;aspect=fixed;imageAspect=0;image=data:image/png,iVBORw0KGgoAAAANSUhEUgAAAF8AAABICAYAAACQnynWAAAACXBIWXMAAA7EAAAOxAGVKw4bAAAGvUlEQVR42u1ce2wWRRAfaC3iC1FQUUDRGkVriAYMGqnPQFFiTBDjA40CUeMDXyj8YQy2CRGrJkaBGGkNEik0JEVFaXwGERQLAkKxxYopIkqsIAWxlFrdybefXrd7+7jbuxu5b5L5q9/Mzvy6tzs7O7MAbqkP4yLGvSDdNIbxCsZ7GLcwXst4KuNjohgsj3E54zbGfzPewPi4FIKOk24Bx0DGmxkPcD3oLMlAD6YM+HzGtQrgs7ye/9YJjWL8l2SQeSkDv9wA+CxPdTFgAeOtEuX4z7gkRcAPZXzYAvxGxj3CDjrdR/mrKZv1L1sAn+VhYQYcyHi/ROn2FG626wOA/1CYAaskCjsZX53CKKchAPhzgw52lY/CV1Ia1y8MAP7yoDH9ZomybYyPTSn4F3jOOKb8eZCB7pQo6mB8ecpPtZMtwa8LMutl69tzkCPgy64p+J+4mPVbcrmcf+kovpyYgL/MdtY3SqKbUTnMu9DpkEmo6cBfYKN0okTBwhzWUrrPAPwXbRR+IwjvgwgydEcI5RnE/saJx2KJ8FM5jJV0lwb8ElNF1YLgLojoYuAIoqM1a/+5phtIu8u8RIrodR/g8VxUYKLgWUGwORdaGtMEH/C3mgjn8yXGKzglh6kx9fMBv8pEeKwgtJuvZTkyp90S8KebCL4hCJXmsLSmlUEiHVzXf/cItPPNN0d2VC0BX3s+ukkQWETQsf78vDGH70V5BG2sEHD80URosSBELWWMd6C/gKPboQhJzHRW6wR6Mz7gEfgBHNy2OySMwholn3MbOKyJcURvCjY+phMoCZMESvjofhoxW5cL9o3UCbwkCFxGzKEvFOD3JmZrg/Blag+oWzwCOxn3JOTMYMjcI8iAbyGY3+nw2LdKJ3AG0K5IeFgx6z8iZusIwb6ZOoF7BIGx/4O4Ocuzidk6TbCvWCfwFnTNvp1AzKFdCvBHE7P1XY9tf4BBJvM7j8A6Ys4UKoA/SGyzxY211WNfrU6gr7CZUSvzvlsBfi0xW8VwXXvzdx3QbnCYrwD/cWK2zhPsK9IJiCXf1MpCNijAv5DYktMiZAi0tBQss28xUk++afk1G1CiCUHC9SbomkKmlCU8WzHry4inFLThOiakvK0tzcQcul4BfhEhOwcIOB4Ag9u/IYJDG4mB/4QP8PXE7HxSsG+JidA1gtAaYk75lWE8Q8jGfL65eu0bbyI4SRD6mPBp0VuoW0jIxtsE+1pND35lxMFfLQH/U2I2fg0BC4nFtvUviTlWLwF/IiH7RkvsG2cqXAPd3wmgQniFKda/7CWWy/kMul+UG4fqHwjCO4jndCh9meMl9s20UbAGurfwU6jJPB7kaeRDQKNSGtPE26B7IeyZNko2ShwcSsA5VTLtSgL2zZDYVWOrpEmi5EZiOZJQn3YEhMm8PyV2jbRVtEOipDxBx84CfWNZkqdbPFCtk9gUKET/VqJoU0KO9fUJLWV8UUI2lvnYc20QZXU+J8i408q9+OHJtJk4iYKum0FevhI4AvNzeFrMkcNSsGujx6xh/xhtvBi6llJ6eUxQpYt9FH4Pmc7qqAnDxvcVILcq/hbX8wOF/PDk/A65VOHcAxE7dSLImwi8Pb+q+sw2PiOjpPMY/wT+DW6h9p47FM5hk8TAiJwawb8u1dKClb39QP9uWVQvXGE5+s+KseeHHWC4xrmvHJ8oe3BQD2nGXQv/lX03a377Dhi2WFoQPuVyUDMxQwclBZp1NftMSR8HDhUZRjS4sXmbhSsMZD5kfJIDG0+G7rX1Mp7k6r9cYzAY5jGuCLFuYura9BnEewX5GwzlcG2+BYI1dGCmFEto9hqM857LT+x+Q+cwxsUb+nEGyTdsopvCZ3qnRQhZ4XMG2GehA9Pij0CmrNwkVVCq2FRF3gOOGwQHg/x1WN3SgBnRSsg0VWDYh9Vay/hG2gn2j7+tVKzdcwPoy1ZjrOCb42xu5xw+e3cG0HdrFDt7bUDnXHETj2xUOZ/2hG2cFVU8W5KgU1ghPcjAxsoEbcQTeKSdOqsScKrBYg0dZLn2u+I6iOECZ1jMnzYWwNp2EU6OGXi8bDolrgTS0zE5VRViNr0Wk42reZo7NsIYuTpCh/ZD+Odj8kD+prNLroSE7rIxm7kkAofwMDfEkY24+T0fMKRV8W+Mb4eECZ2b4WgPwINWVK+MY9HSdgc2HubnlFOBEJ3Pv4IOS2da+GFmeEyXMfim5aYAoKOdLzA+BwgTzgjs1cKW0XpudAdfw7G+BusVF/Gv5VJIrsECk3eP8gmDNv3Ks5MdPDWAoe3bkLmLLYYEHsz4B0O2K4Y3CskGAAAAAElFTkSuQmCC;" vertex="1" parent="6SV96YwUpE69g-SIMWA9-30">
          <mxGeometry x="73" y="106" width="15" height="11.34" as="geometry" />
        </mxCell>
        <mxCell id="r87C55WO3ufg_aptm7hn-17" value="" style="shape=image;verticalLabelPosition=bottom;labelBackgroundColor=default;verticalAlign=top;aspect=fixed;imageAspect=0;image=data:image/png,iVBORw0KGgoAAAANSUhEUgAAARwAAABnCAYAAADSZv1WAAAACXBIWXMAAA7EAAAOxAGVKw4bAAAWDElEQVR42u1dC9RXUxbfFaVUymuKohlSyiNCJhmVPHogKRrPpgfJIzIYEakokzwqeTNeMSpJNaEpw4TRKKMUUehd0tc0mYmec7bvfGvd7ve/9/7OfZxz7tf5rbWXtfL97/3dfc7Z55x99tmbKDmOFDJYyEwhy4QUCVkp5BMh44X0EXIY6UMdIRcK+aOQCZLH15JXiXwjZJaQl4TcLKSFkAqkH+WFNBbSQ8gTQt4W8rHkV+TR5adC3hAyTEgnIfuSA6OykJayj42S+psjZImQtR4drpD9YLKQ4UIuFXLIbqqzfYScKeRO2ac+ErLY09fmyn+/UcgRNhH/pZCJQnaC8qYc2FmgoTR6CxT4+OV7IY8JOUaDkWkt5Dkh/47JdascXJ2F7LGbDZhaQvoJeUvI/xK0907ZXwYIqbsbGOYu0uBuVdTRh0LOMf0B7RIMlrFCqqXEo71cWe1I2PG8ws96VcihKetsbyH9hXybIleWL2R7lHW0kO2yJWX97ZTPfFqujssS6gl5PAXDzDJNyIEmPuJ8Idt8ZJYKGSQt4elCugmZEjFIkizXmkrLG/T81ULGyVUPL587yFUFG6juQh4V8l2EgtmgXpSCvngF0ltyCurss+WW4FohFwtpK/V4sTRSs4EOwVuyvcqgoWksZ+awb18nZJKQ+2T7XiCkjWzzM+XsfqNs91khs/wmuT0rC4bmqQjjvF3qYqCQK6SeuN9dLmS03Gb5f7NKSPOId3Mf7CvkPblFWyx3DgfH+ZBmQjb7VgP3CKkY8Pd9Qj6Y/RS1Fd+/l/RjFOowS6TyGisYglt931NotfP7BA1/gpCFBZ67WRrE8xSMRDNgy/iOkOplxNBw+9wdYhzWSgNzvNymqqC6nDinyoHnf/ZLIX3aZuwp5A8RK5oNQm4HDEB5uXKeX8AonxrwG/aLfR6yCFDaNVQV8pXvIchgDJud5ioMuKZyZeR/Bju9OsbodCVgp+OPEQO5Vww/za0FZpj/yFVXXKdvlYiVHct02fHyjDoh3/mdnEErpfSu+tJJ6n/PGznzj/GENC/C7zdCyH4xjNiIAkbnqAJ983PAnQLjId+Ph4O/6xBBoj/wDHaO/tf3u5Vyy1Euhca6KoIjG6TjwGexMZlRYPk6OkZjF8IBwHZwaI6NDXfkZQHf9VpKOiyECwv0sRE50Bf3/34RzmA+pftNwvfc5Hvml1R84lWCwcC2f73KLOCdrT9TmEWrRTh12VoeFPL72wv8/hUhNVJstArym8KU9R44M/u3PYso/dO5GyK4so+tSQ6NzbFyyV9oaztAw/ub+96/TW6LbQVvDcdH9IWZcpJKAyN9z37S4+ooAgzORvRFL/saX9Varo4gcm/A7+4tsCzsnVHj9QYUdnbI7zkeaWmBGblaBlyrUPTJw9QcOjpXBnzL7zXyuMD37o8t1VfdAP+gVyZRugcJleXKxmsLeDJtS9hJFzJp/xxv412uTYxBNGr1sLjAb+4osBI6M8MGPIiij9ffD/jtEQW2OXentN0LwiSKPt5vkBNjw4PiUwo+fdONF30cTrJMXw1Dtp0l8nJGvrwWtKujnU+6hoAG5z7kBQ/6ftQ8Bsk5AJkTQlYbvFw7WUNDLgEGsX/7V8v3O/6b6zVwvQXQ6ZCcGJxHA/gvlLOqbhzn4/GgRbricbIO2EZleXDgn+yWgwanPTLzrPf84O8xCX4NkLlG/m0rn7/oe43+iMkAz14+/9Rc3//vrYnrOQDXf+XA2LQO4d9GM5f95fagp88nYYsej/KNx6Ddwv4Z8ziV1AMH2R8W6Xe9yPejS2MS/AEgxLPIIdLAeONVWmhs0DEAz1fl35YrYOkHauTaBOC6PSMfUlrgWTgotugfmv1HHBf1UwCXIst9XN6wi/qa+HyiaHAgX5h3xmejsXcMYtUID52e5RssnTU36h8BnnPl3/pPil7QzPVwUK/NLDY43UN4X6aJQwvCTlhMRnHzKdMigGMPjZz6KxqcyBCDqrRrFG7cAXUS4XeYTPsfBgE8+cpDU99suDCmMU6CuqBeO1hqbCpQ4fD5ksmtkgYOvPVYDejwJ8r2ACAMHHz4LsDxdc28GikanHOjHtjF94PzYhLrGWO/91cyky7iPpCf9/ibj6ePNsD1GJBrN0sNTvsQzm9p4jAM1OEKg3oaAfDj2CHdFyvZAK8D9ce7lZpRD3zJZ+Hj+gIeJvU0EbUNNe4zMYzjlYa4tgL53WSpwQkLWLtbE4eloA5fM6SjLoRlQrjREL9poP7mRj2oIu2afmJmAlLvKQ7grgYHwTRFrlMMcu0McrzGQmPD24SNho14DYV27mFAR/Wo2AkcxW0RmbtoOh7UX2RYQRvfD26JSYhPIf6r0LBvGB4IixW4sn/rMINcbwR5XmihwWlO6V6WjYNKVPimeKHts26HMW9X3gbbt6PBdvwmLY5DfT+I66M4UWEA8wXJ+gaVVwXsgCUyyPCgRbd/LS00OAMiON+liccMis6seLYB/fQA25ZXN+UNtWEtBf9N5IXbj3wOs7ge+usVBvBgw4PgeAWuy6WBMonZINfGFhqcqGsZupzGrJugQLpNhrb3HMm+AWzbaw22YReQ46fI3tab0e/pBKReBkkts2AAd1cwOKb9IjyrIcGUW8jORFKzAd668gxzsClfrSgJOOWsdmOkD8XmlSv7WKsabMNRIM+RUQ/yh8x3SUBqKeXHsfkUyHUVmU/l2QDkauvVhmUA93GkP/alkmG9HE2l0/cGyZOGuc4HeXaKetBA3x62ZkxCB4OE+Cy/sgWDYCHIt78FXNHV2J8sNThrQP530O4FlVNSk765fQnzd/KRfmR80PMp7aXRY9tXLGjofQmv/GBDPaNnQa43WDqwFikMrOct2G7rwGkKOllK5pzFjI4gz/nIw/hGKt8K5/yoSe7hPASSutqCxm5P+KmADVgC8j3F0sE1g9Tinfh7u1H+czWHYYqCPoYZ5voAyHO0TlLzQFJHWtDYQ0Guj1vAFd2q/mDxAL2f1CO6SxKosxOSE7HtXYaMzRGkFpJxomG+c0Ce2i5fHwhuUfjiXDkLGnwWqMDfWsD1EpDrmxYPsA4xDY7/JIszMHIaWr7nVzvHBucxhe9eYXjMcOJ0xLHN4/8Xukh1zZH/hh3WP4F8D7KA7wsg11ssHmB8VF+UgtEpFB/F9eS5RA9HM1fIgbHhMBSVaPxHDPNtB/JcoJPUEzny37QGuX5uAVd2FK7NybI7CoMzMDiFEmdxwjQ+1atlqR56KH7TGYb5ohkVxugkhd5JssF/cxfI9TELuDYl/Ma97bM7h1us0WB0vCkuOWdMK8v08LbCN2wi84GcH4JcL9JF6BCQ0FpL/DczbFNgCO4Aub5A+cC5hIcjpCkc7lHfgu9nX+dWBd6TDfOtSuH1yo24H36XI/9NRXD/vMOSJTk6u3Sl/KC/AYNTcorXw/C391Hk3Ncw3zNAnl/Y6NS0wX/THOS60AKuB4Orga2UblVSXSu3HYYMz30GV9qvKXI17YJA609pdT+syJH/5jYbHWABQG/ez6R8gitebjBkdEwE0qmk6Cw5gTMNNJmetvCRhiAhW+JvpubIf/M3yvd1BgS15Oy41YDR0X2B+GhFfi8abhu+sLzZNv/NNTny3/Apzr/JsgCmAPD7kWCr7XLrlXfw6vdZUotPSSoci3W8xm+8RpFfb8Nt0hLk+aVOUhNy5L9Bj5gXWMC1N8j1XSpb4KjWK+VK9H8ajA63ta7rIE8pcjOdSA0NH9FWC768wp7UBv8NmhP4EQu4Tge59qGyi8pylmUH80TCcurEEV2T4d8VOK0ns7fDGWj4yCW6CKEpOm2Jv0FPCLoY5rkf6NPYZsHWTzc4jqVtykZoOekJmlxL+Ym/QcNHWOroInVzjvw35cAGt8F/g8Y1TScHkj4svkv1RQKj0y5jjjUU+dxpWKengDwX6yT1lxz5bxrnyH8zGeTay9maUpMKp0f4MobByToM4lhFPuca1iUaPvK0LkLsaNuUI//N1Tnx33AmQuQm+xYCSnHspqgi21FlgGedC/pURT51DOvwTZDnZboInZwz/804kG9nwzyvAnn+xdmVSNxAeDTzDxlzaadgbNYZ1htXSf0PyPVQ578pDfQ0DUoAnTHQyM5uzp5AuFNhoGd5PH6RAo8ZhnWGFrP8RicpNB+rDf6b40Cu8w3zPASckTn6s4azJRD49Am9AFs9Qx4qNdBMp7W9CeT5rM5GRO/A2FAFsh/IdVROHHVjU/Bx8DPmpLxSKi+NJgdY1rXI6KABn1mWLrpcweDcbFhfb9i2ykZXDOsoX/enTPtvPgN5Jq19fa3nWWtS4M3H0iOpdHKtFdKI7mFBH/gnsGrMEl0UDM75ht0P60Ge9XSR6gsSes2CjrYn6ADjrcwBBnk2AXW6ipIHqXkjXj9I+Cy+8R11WjmJzEfNDorg+FnG72+rYHCOy0E/XKqTFHp/qq8FBgfNfzPPMM/hIM/hCd/DTnHvpdB7EjyrM+GnQKYThF0Ywe9VSway6cKL6GLiOV2EeIv0XQ4sdQnQFJ0jDXLk2X85yPOohO/yH7vHLZz3Syo+SkYH0UTD/aAVmU3xUVNBVzUN6ul1kGN3XYTQiN0NFiyjGTNBvp0McmwJcpyTwru8l0LXJ9iePUNqgWymV5BRW5pjNHBADlp2GBw3lQgP5j1MFyk0YneyBcamMmEJhLiR9zfI83FQp0lnYf5G76XQuMevfHy8RdHgzDbcF3qS+ftAyOS3ncwdtFxG+GVXbXiZ8nG0hyyjS+RTgxzZqf09aBSThrv3Smk7dR6p31V61nBfCKt7f68mDmh9p2oG9MOhEl+B/LRWCFkJkjrJAoMzEOT6sEGO54Ac30/hXR95nvdVgpn0nhgG5xzDfSHoJjk70HWF56PXG0zEMD2t0JbaLg3XBwnxPtCG2As0gZDJuIcxIMd+Cd/jD1e/I8GznlQ0NnMM+/N+FcJtgkYenCMYcbQfpVk/fRXb8wgb9sFeedMCY8NbFbT+lEn/zVyQY9JZ+HnP81gvSWKOVEqd8ABrYrgvDArxlxytmQtyiVjnBNiWsNzZJbJSp7LQ+lP9LTA4vyY70hJEAZnxkp7wcEKxH1PcQo4FdbtRdmiT4MqRQYnXTFRFOAvQ22BNXDhtjGqZnrE6lbUUJHWKBQbnDyDXBw1yrER6kkONol3z6CRdLT0MrMj4Pk4DC/rBgACORUJqG+BTnqKds1M18OBv/yaGL+4qG/bBO33L9YoWdDT0/lRHgxz3ouyTHNWnXY+w0zgt6kal63Y/Lg1bT517fODbgyo//M4gr6iLnLwyrJKxsfk8hrFhaahLSej1+rct6Gho/Snew+9rmOtGgGejBM8fT7teUEwjYMufRmMK2Qee9D6wYVsQ0D/nRbT5pRm9mwvW+U/s1oBjW2sxy+dAUrdZ0NnQahKfWMB1EcAzbu6b9j7DMCRF3u/5tlCnWmZwnqDgmKu9LeDHGTPDnLXvZPBOPv1a4nvPnyk8Rsn/t9rwLUiqmQWNidafetACrlFXBOKmTeASul5n6ZKUB5r/qgAbzuqWGJv7A3T5NdmVp2eoxu0+B2v6sya8IFdbH4HjRVsyvTqEn0rYEH8zEeTbwQKuXSn9MHJ2THqTYPNM2iID7lMK+HL2MryNCqpuyQce9SxbhfFgnxbS9lxza5+E7+BJ5mHpPvAnm+N+wlHNaF33RroU05Hyc3+KlYhcFdhCZkLI/eBVQVEIzyLF5/Ee2x+YNyQj7uwPWEWlSw+biGs6PMRn84llKxsv2KDMDmn/DxL00zOp+J6Y93kcHtHT8zdngWNbazGEISCp6yxowAYg11kWdbqBFO7Yrq5gbB4lvcmv2F/md9CzEdIVvMYXdDkEIug0aoIlPpsooxNWBni2wuqC+8DpVDgZ/wLZXl6g11TG6VQIWqPGhuNQNDv+AIs6XE0KL1mL7OV/QaUL6HFHraqBP0cSry7Am1c7nPZjz4x01i/gvTulEexBdqS4RbeDYyJW5KOpOKFcuQJGl532d1Npp/BOuWV6gArnbEbrnV+rUxnIFmWJJQ03DFRgA8s63MkUnPJhLgUn+GY/wKVUOpr2/RT2/ypgJ/V0Ck6Lyjel21Cy+BLOnXwJFV+t+JGCgw7Hy7/NI/hk8VuKjnX7Qm4Vl1F4qhCORzsyZHX4EzhetN3vKgeSesCSBhsNcJ1paWfrGjKQ2OhwAOAp0jhxes8RVDj6e7ymlU2hvsIcwzIKcF/6BxWfzvFW6Aq5/eJtAFdXOEkapo7S1zBMfg+SOmGKfEbewYaAL1SuoHjBeWyAXqHoiH80fYv2YghvUXRBc1uORDtFcN1Gdly9CMJvKPjuD3JRsrcF38AnVX2ELIz5HSqyVk52x1DZA69e20rjHLXq2SQNLhuqg8Dn3wXqeILuDz+WglMPcqdqaFEjlQ8xkNvJjsTuiBORZ/bNYIfgv3tI+nFsA1+ivZ+C89GoCrchX7jlGKp2lG21TNtwoJyQuOQM56Th6P/zpLGNowc0/e71Jj62kdw7b5DG52PptKtqYcPwpciBcuW1RS7x+bSmZc46GEcY/1bIS3KQrZIOwNVy//6i3IblpQonO3pbU3FgJkeuvyu/iy8RFnn8E+ukT5D/Hx9YjJJOSz7C3Z8c0kBFwtK36Mr37ODgUIbRAjQ268mOYggODg45Rn/Q4Ex0qnJwcEgKNLbuBqcqBweHJGD/DVp/qolTl4ODQxKcBhobjtau4NTl4OCQBINAgzPJqcrBwSEpPiA9pYkcHBx2c3CqC7RMc1OnLgcHhyRAyzQ7/42Dg0NioCV9XfyNg4NDInD633Wgwenu1OXg4JAEbQnPOrCPU5eDg0MSTAANzpNOVQ4O+QKfBnGSNE77yalDbiWzUbtc3hk5neJsBIe55nNwyAc4+RgH1gVdHXiVzFQLeQJc3TzmmtDBIR/gBFlIUTlOEKczZWcjcHXDucv3c83o4GA/KhNewZLlXE28OJfN+yCni10zOjjkA3eSWqrUZzTxuhXk87xrQgeHfIAL7aHpHkpkmgZeXHlzG8BlLtlfLNDBwUHifFJPBj8mY06ch7gI4MH5vuu4JnRwyA/QUtheuTxDPlwBdw3AgZPxN3TN5+CQL6D3k7yF5bKqdsIVMpeDK5tGrukcHPKHpxQNTp+MeLSk4jJOUe+fL6SuazYHh3zidgVjM5bSj8Hh511FwWWivTKO3D0pB4dc40RgoO+gYkdx2jlmaguZStiFzCtdUzk4lA0Elc3l0sTThbRK+X28SuF7WhsJy018qGsiB4eyg3pU+GSIyxgPFXKGkCopvKeZkNGE+Wo4vqadaxoHh7KJ+lRcDz3IAHAQHte7nyzkASG3Cekp5AIhbTzSUv63k5BuVHwZ9HUh3xHmJ+KrDJxKtJxrEgeHsg320bCvZBWpx+YkkbVCRlLxsbiDg8NuaHhaC3lUyNcZGJjNQj4Uco+Qk6n4kqaDg4PDz6ght0rXCRlOxZclub73PCFLpHB6iCIp38t/WyBklpAXqTiiuZeQE4TsmZcP/z/RQk1LK5rmuwAAAABJRU5ErkJggg==;" vertex="1" parent="6SV96YwUpE69g-SIMWA9-30">
          <mxGeometry x="330" y="276" width="34" height="12.36" as="geometry" />
        </mxCell>
        <mxCell id="r87C55WO3ufg_aptm7hn-18" value="" style="shape=image;verticalLabelPosition=bottom;labelBackgroundColor=default;verticalAlign=top;aspect=fixed;imageAspect=0;image=data:image/png,iVBORw0KGgoAAAANSUhEUgAAAFUAAABwCAYAAABvlDzfAAAACXBIWXMAAA7EAAAOxAGVKw4bAAAG2ElEQVR42u1da2xURRQ+pYWiRYho1EgkilHUqFAspVUqFRRJUIwmTSBGUTGG1CAo1Jao1BdCEEGBFBMEExUDtfKsPFQUBQEVTE2MIkgiCgQR8IX1iXomO02216X73deeme6c5PuzbW+/fDvz3bkz55xLZEZ0YfRilDJuYoxl1DLmMZYxNjN2Mw4wplKWxxmM4YwxjCmMOYxXGW8xmhj7GL8x/vWJ07NRzALGOsbxAIKlw5+MvGwU9Z4YxGzBtmyd9tNiFHVatoo6KkZRr8/mm1QJ4y5tBVWMasYjjLmMlYy9Af20C7loM4oZn/kQdYuTDIvBzk+jjwucn0YfZaCgfzFOcXJhcR8o6gdOKjxeB0V9ykmFRQ7je1DU65xcWFzuY31a4OSK1k83O6nwWAaK+qSTyvmpWPQBBf3D+Ske40FRNzmpovfTJ5xU0fvptU4u56fOT7PRTx93UkXvp0OcXNH76clOLiwmgKK+76TCYzko6mNOKiw6MA6Dog52cmHR1/mpnJ++56RyfmqFn17j5IrWT39nnOTkitZPNzqp8FgBivqokyp6Py13cmFR6Pw0+rgfFPVdJ5U5fqrsRaVkVuhr1DEWMxoZaxn1jAWUyORWv3Nue/DTIzH4aTdK1BYowX4m/6nuexgzGRe15/WpKlLrDFxPibBQ+28UhRn/MFYxLm6P69N0fnqhfsw93sZNbgdjCWOGnuo1jFl6NB+l9ElwNXpmtRs/rT3B33fWewGpRuZ+LVo5sGropO3iYBoeS/XvGu2nR0FRB6X4e3X0sotSZ1XfwsgNwEnVtTal4VJv8ogtDOGntzF+9fyeEnhEBLx6ACP2IdvXp+8k/Y06bZ2d4mYyn6JNrKgEPPZSE0VdCYo6JckuXvD87DtKlLdHHR2BR+dGm/30akqUmy/2fK4aJ5wfI8cXAW6X2OinzYx8xvOezz+iRBOGOON2gN9MG/10A2OS57PtlJlCtCKA3y4b/XSHZ0G/OwMjtCVOAzmeZZufJkPdOHplkGcnkNcwE0TtF0BQNVolCnr/BriNNkHUBwKIWivAswDkNtEmP23B1oCPnGGjJ1nSZ0CJ84MPQZv1DpTJyz7x4ji/flotyHU4yHG8tKgTfQj6qX5clIpqkOcoaVFX+RC1RJjry2RBGacfP11twA21CeR6jiTJKywapWrhj5xzHbbFT78yYJSWglzftsVPTeiB+iDIVXSXyo+flhgg6mob7vxFIMkfSb7/qZ8Ej7Nt8NMVBoxS9EnqC1um070GiDoZ5Fpni5+akF6zEeRaYcP6VJ2M5ggL2pUSx8/puKp9VtGG4pNAUV8zYJTeTJb0wkL9dJwBoi4AuU62xU8vExZUcT0EchXNTkHXp0dIPulrCMj1a+nphPrpcgOm/jyQ63PSRBtBohMMeIo6AHK90hY/LRQWdSDI8xvpZV9/H8/7ucKizga5Pm2Ln0rv8ufomw/Ctb8tfiqdjIDOqD3SUz9XT2uEbJGwqOgLcsSTJtBv/ydhP83RIxDh2kda1CqQqHSK91Ugz50GrKPpDZBslTDPOrKkz0CuntYI2WJBnir7Be0r2NsWP1WFuJLnUTeCPLdF8OWpkiT1aqfAuayon64R/vKXgDwrQ/6fWz035lj9VDKjTxViNBPWDaN7hOv1piAXyPPhpwMERR0NcmyI4MtLfvfrs3H66S/Cfroe5Bm21nWk53pD4/TTtYKCnklYgcQhCp8f25B0vWOENYII7Kc1gqKOo8xsRqtCjORK71fi9tNSQVG3ZGhHqiKKqV/sw0+l0s7Po0QpeybKI5N9e1/QPQ40/XC94CitBDnOCPl/enu+vOlBL7SGzD8zf4kycw41l1o3XOgZt59KHpxtpfiPd7p6tFgY9EIDQEHV3VCyW86XAMd1If/HVGpdUxu4uA710zeFn/d3Et5eJEj08Cyj6sOQRf1UukvOJoDjDSGuv8jjpYHbgeQR3k9voLCo9QDHfgGvXU6tGz7MCkPUFj9VgbyWKUgev9rJ+pZaJ110C0MU9VPxmiNKZGqn45nv85rq8DD59c5qfRr6DUTo8/7DZEZ8nIZnd5+CzqGIa6tUYheaL1VmiKgjIvTUZ1LsvuVmYjol95cyIXK0FYXZQVMdh7wdNj4J66MtUQaKuoHMCrWnuv8EXA/q9WaqUC/CGUP/b7D4IePUqMihhVwjybzo24aw6vMqbRWqy9CdlOjilsrqGvSjaWSRD3jqUjI3VK3+dvLffajliH1sXMTubmOPUu0KdSSzQ91s79BrS0TMY3prMPY6KrWrrfJMVa3+Xkrk8A8iu6KD3kGbrh+7VQ8XlbL+OSV6uM7XdhDqBWP/ATV2BfeKdX6tAAAAAElFTkSuQmCC;" vertex="1" parent="6SV96YwUpE69g-SIMWA9-30">
          <mxGeometry x="296" y="223" width="11" height="14.49" as="geometry" />
        </mxCell>
        <mxCell id="r87C55WO3ufg_aptm7hn-19" value="" style="shape=image;verticalLabelPosition=bottom;labelBackgroundColor=default;verticalAlign=top;aspect=fixed;imageAspect=0;image=data:image/png,iVBORw0KGgoAAAANSUhEUgAAAFEAAABlCAYAAAA1ZA+NAAAACXBIWXMAAA7EAAAOxAGVKw4bAAAHfUlEQVR42u1deWwXRRSeFlpQUYuACAqimEiQCASIHKJQNURAA0iCgAceKBIpHiCHCGKCiUohsQFRERVQCCJYwVSKRUxsDFLAiCh4gAdVsFK5Ubl8L50my/S3u+/t7m9mp+yXfH+InZlvv519OzP7Zn5CpAfZwEHARcDtwP3AE8A9wK3At4AjgE1EenE1MA+4FPg1sFLqOCK1bAS+CXwY2FLECHcAfwGeJvAY8HVg6wjbrwccBdxE1OBkKXAYsK4p87KAcwIIPy17xlhgZsj2H2LcQC9+C+yr20C8+CWKkFPA1cB7gN2APeRFbvEQ/540g4vewB9T1IcayoD5soflAjsBewFHS30nPPTMB56ny8TnlcbLpVC3HrPcQ3gh43E6F/iyNMtZR6XURAkTbYDrPfTgTW+WbgOxF5x0NPor8AqfMg2BBzyETyde/Hal3L/AGcAc5jXUAb7moWcnsEW6DKwnG6hu7B9gR2LZBR6ijwO7epS9Vb7xnWU2A68NcS1oZImHpm3y5keOcUpDzzHKjvAJ7utcyj2ixLGTsudmRXA9TYF7PTRhDM2I0sAGwH2OBn4A1meU70l4S3ZKcdOc8e8wcGCaO4bKMVE29phS+VBm+WsIJs5z/P2Tyv+rAHZOw9OFneMvD00Hgc2jaAjjxy5HxbsCDFBbE0z8Xv7tUKUHlsubkC684qPr7Sga6aNUmhegjrbEge9d8oVV/d84XbsqzSOOfj6aMCZfGbaRpcrULSdAHZ2IJqoxsIuGce85yo1LxTlhY8ZRZZYRRW8+Tbj7/TXOwrb66NkvzQ6EwUplAwLWM5Jp4kTNU9llBE1Dgla+WHm86gesZzbDwE9CLk5EMZVNxXeDrpRUOipZFUJkKdHAoxEvlVExgaCtIsjNVePYowEF1lXiqhdnGFraG03U145bcYFSQdChRkeiwEPARoZMvI+o8W5uxduUaV5Q5BEFLhLmQNU4k1NpM2XMVhBC4AqiwIEGTZxK1Pg+p9LhSuF+AcVl+sxNnaszDQ2aOIto4gZOpa8q64ZBl83bE8VtEmaxnKjzZ06lmx0Fi0OIG0sUl2/YxK+IOvdyKi13FHwwhLiVRHG3GzbxIFHnYU6luXJwPT/EnBHj4T7iPNlkPGzKmE0d0C2ugyXx8GaGibt1i3vckng4XvA+9GvFB0Rhtxk28R2GiRt0CstUFi+84mGOYRO3MUws0imsoyXxsIHwTi1RWaBT3BPpmIumATcJ3mLxGJ3iCi2Jh1OZJvbRJayORfGwiGliK13CqF/2ygwbiC+//QwD/4hjPDQ9PuzA7IVLdYr70JJ4OJ5p4mid8fBvS+Lhx0wT2+kS1tmSeJgtV2SoBmL+UYYuceOEHePDXGYvfEGnuNWWxMOZTBM7J/GwJnYwDNyp81GmxkPT8+U2zF44LY5DBtPxcCLDQNyhcEkSD2uilGHiQp3CMN/mgAXx8HJRczORF7voFNfFkng4SfBS/LTiKUvi4VaGiV11i/vIgnjIWXBYqVucLfFwHtFAzAtqr1vcdRbMl3MYc+U5JgROIIqbZdBE6jdwTJ+50IRA6hL7MEMGZokzd8d6cZAJgRgPqclAbQ2ZOCquL5NqdGW88ZoY0IfJWLsJ2n4DNrZhHtorpvEaN633NDl45Syx52nWhscqHCHommzSQAzYhxgmFmrWt4agCdOMM02a2I25LhdmWxsXDxD0fK5RTyST+WreqWl657eDC082aSRigDUBTCxNsyZMW/5J+C/3t4qDgVmMadQqTWt0+GiW+GjBbystREzQXdDzVy4TVcvsfse3hEE2YSXpG6F5qd8Pk4kmLpF/n6/8+/0R90C/rR5r4xIDnSgmmjjSsYqyR5y5o7RDBDqwl38p/BOn6sbNQE4KhnMDeB9x5jlj5SHn07kyXHjtORkuYooeIvg+uGmi5olzAwL0PjxKwOuDE86kWooY42miiQtcys92eYP7zV/xZTbXZ5ZUIQfaGSLmWCvC7VLPkAsDx1OU+V1UJVO+KP8GD3VbTBj7YfrKM8DzhQXIJk7qkZf61IWrOt8FGLA7ieZOEWb3BrJxPfHithPrwySoe0XV1uBTjFj7BvBGGx7bVJhCvNC5AYcruC0YcwHxkLMi+WgXyBfSEELvtgIlRBMHiwSh4iE+lo0Tu1LjBmIv3JJY5Q7qFq78xCp3rCOa2D+xKjXweGjKeV84gL4gsStcPNyQWOWOaSKG+z1sw6dEE/smVrnHw2PCjv0psUUvYi/cmFjljmeFHfnYscZ6Ycf+lNiiPjEenkzioTt6E3vh5sQqd0wX8c/Hjj0+I5o4MLEqXDxENk/sSg3quYK7E6vckU80cUVilTuonzMnJValBvVoZ+QtiV01kcVYtUlMVIBZ9N0Z0zz1B1Wzzxaj8EIx4wA/ruOp7vhxHM/T/0LQjnP24n/SUMzLxnwd/CmmhbIdbA8PHrq4Npg4L6RRYbmwNpi4x7CJJbXBxEOGTXypNpiIP6jwp6j6ZQv8iQ9MTcOMBdxdhPtSlvmwWMY7JOZKl0nukHUh8UcOKiWrdw1g+gkmp19ku4H/A2aA8kZw+uM/AAAAAElFTkSuQmCC;" vertex="1" parent="6SV96YwUpE69g-SIMWA9-30">
          <mxGeometry x="278" y="107.34" width="10" height="12.45" as="geometry" />
        </mxCell>
        <mxCell id="r87C55WO3ufg_aptm7hn-20" value="" style="shape=image;verticalLabelPosition=bottom;labelBackgroundColor=default;verticalAlign=top;aspect=fixed;imageAspect=0;image=data:image/png,iVBORw0KGgoAAAANSUhEUgAAAE0AAABICAYAAACzxHgDAAAACXBIWXMAAA7EAAAOxAGVKw4bAAAGI0lEQVR42u1ca2wVRRQ+FQUExQdFkQRFQUTQxleoJJIGER9Y0RRjUEExSFJ8FsSgqShKrCRFjUrqC0mpKDYiPiKC+kMxETAaE7CKksYaK4IlgEUFFFDPSY/Jdt3dOWf3zs6uOMn3696d+e53Z745M2dmAbJbTkZMRMxHNCBWINYh3kHUIx5CjER0gYO4FLEICxE/Iv4SYhuiFlF8MIl1JOJeRLNCqCC0I6pY/P9s6YGYyT0lSozvEYsQcxCVLMw8xEeI3wO+vxzRy9D2YYhJiMWI1fzMdVkXvAKxOUKofTxMSw0/5HgW81ff82u5BweVQYiNIe0uRRySNbGOQzQaehb966fFmDQ+8dXzAfcobyHfazW0f22WBLvUMBSpt0xOUP/hiJW+Omt931ki8MbGrMyKsxD7I4h+gxhagLZ6Ij731PsnYhR/NhhxQCDa61kwe9Nw3MDeVKhypm+CaOJhOlc4C891HUp8aCD4GaK3hbYf8LUzBbFGKNpVrgQ7mmewKHLfWgxIuyG2etpqDglP/KDh3MeFYMf4fCUIuxBnWOYxO0aAvNGFYN14qo8iRmZ8ZQpcioW9y4vnXcySLwuIPZkip1VK0SanLVqNgFQzhwVplWlK0U5JU7ByNlHTsCxL+Y88XSFYa5rEBiB2ZNEveB3ZLhRtSVqkuvLGoInQb4h+jsKfL4WiTU2LkDTKrnEkGK1H9wo5Dk6D0BAhoR0cu7koFwoF25KWV3wsJDTb4VLuQSHHV9IgUykk8wfiBIeirRbynGabyBGIn4RkXnUoWHfEHiHPobbJ3K+IfS5zKJrUz9rAcm6gWBH3bIN/bzdn0c+W2SZSq+hlz4DbIvWzO2xvKv6sEK0sJ35WYpPIbQrByCe65MDPtoPFlF0RhOcKg7DI8dCU+tkbNkmMUW6xVOTEz2bYJLFYIdheCM9uZ83PzrVFgrawdypEW+W4l0n9rN2m745TDs0ZOfGzFTZJNChFK8mJn82ySUJzwG4ruD2upPGzUpt7Zppe9mJO/OwXm0u8qUrRpuTEz97Nkp8NyYmfVdskoVkFtDn2M00+YIQtEhTDaNL6y3PiZ7ts+tlA5dC8Kyd+9pZNEmOVoo38f/8M4FaFYHQkoVdO/GyYTSLVCtE25cTPrAff8xSiNebEz6wH3wsUolXnxM9usk2kXiHaNTnxsxMThF8U6LeYFvoa0c5xKNqoFHx3rC/OCy1PK0Q7Kgd+Vpegjeeg8zH+0PIoyJPCefCzqxO00QLCfO7dQjJf5WT/rG+BtscmRH15gpDMWoeiXSTk2JKgjTt9QXzkKahSyH4i5Qkhx6UJ2lipGVV0GWw/ZPfW2qEQfdG2EOtNCmd2e+pZIHmoyfUuaES5XjG7D4/ZxiUQ4+hYnYDQGgeC0eZAq1Awmii6xmznMeicV+gueegKAakmB6JpMv5JJqpNnnpekz7UkxU23RFI87L8JOU+X0PMdoZDgntTLwiIDUxJsBGKuOwfzInZ1uPQ+e0NfbRETcTSuIpIQWabp83dYL6PRbg9RluUQ9gCCY9kme5w1lkWrD/iO097FAqNB1m2LE4udqKvjvI4pMsMxDZb9LVBvrUf9a5K/myhQLQbY7T5qef5HzgmjFVMF2DHWBCsxDdMCFWez8sFot2ibHO07/mHk/yAvhD9MpJCx2sVvHfl7WHTA7zHtCrQnA6iHvWFzzf7J/0hF0P0C0EKsYNLQtT4TJ6S1jeEfH8mFO6e6XSwdHuwCqKz10lSZOch1vvq3MlDJqzQSc2vIfoKuCQDdRbHnN6dkYIeg70vgiTNctqzrAMQz3I85K2LDFlyr3yYIQgfZ3j+VDZ861fHb4aOW3ZBJGk4UYaqt2EY0uRRH1DPAV73adaM4wNE9+Y7zw54pogtZTukeAT2fOh4uVLUSW/aOqIcKl3eoCuCtKe/DMIPP6/jYRrXc8Nu1ezj9eM9HLKQX20I+N4jaSxtevBwlV40C8N6Xlcmjffo3WvvxWh/T4zwJHE5lmefJgXRdu51oy3wuZx3lU0bqWQFb0JKd9ijyknQkc2ez4RoGUapr/eh41UOdEX7giSRtqL04x78FOJtjieJz0u8o6t+gcnfVpA4YCHZcE4AAAAASUVORK5CYII=;" vertex="1" parent="6SV96YwUpE69g-SIMWA9-30">
          <mxGeometry x="220" y="114.67" width="11" height="10.29" as="geometry" />
        </mxCell>
        <mxCell id="6SV96YwUpE69g-SIMWA9-32" value="&lt;span style=&quot;font-size: 21px;&quot;&gt;LoRa&lt;/span&gt;" style="rounded=1;whiteSpace=wrap;html=1;fillColor=#fad7ac;strokeColor=#b46504;" parent="1" vertex="1">
          <mxGeometry x="1210" y="130" width="120" height="60" as="geometry" />
        </mxCell>
        <mxCell id="6SV96YwUpE69g-SIMWA9-33" value="" style="endArrow=classic;html=1;rounded=0;exitX=0;exitY=0.5;exitDx=0;exitDy=0;entryX=1;entryY=0.5;entryDx=0;entryDy=0;startArrow=classic;startFill=1;" parent="1" source="6SV96YwUpE69g-SIMWA9-32" target="6SV96YwUpE69g-SIMWA9-11" edge="1">
          <mxGeometry width="50" height="50" relative="1" as="geometry">
            <mxPoint x="570" y="220" as="sourcePoint" />
            <mxPoint x="620" y="170" as="targetPoint" />
          </mxGeometry>
        </mxCell>
        <mxCell id="6SV96YwUpE69g-SIMWA9-34" value="" style="endArrow=none;dashed=1;html=1;dashPattern=1 3;strokeWidth=2;rounded=0;" parent="1" edge="1">
          <mxGeometry width="50" height="50" relative="1" as="geometry">
            <mxPoint x="1140" y="240" as="sourcePoint" />
            <mxPoint x="1140" y="80" as="targetPoint" />
          </mxGeometry>
        </mxCell>
        <mxCell id="6SV96YwUpE69g-SIMWA9-36" style="edgeStyle=orthogonalEdgeStyle;rounded=0;orthogonalLoop=1;jettySize=auto;html=1;entryX=0.5;entryY=1;entryDx=0;entryDy=0;exitX=0;exitY=0.5;exitDx=0;exitDy=0;" parent="1" source="6SV96YwUpE69g-SIMWA9-45" target="MhYocC3-HSQ2pXqJ2PAP-5" edge="1">
          <mxGeometry relative="1" as="geometry">
            <mxPoint x="220" y="520" as="sourcePoint" />
          </mxGeometry>
        </mxCell>
        <mxCell id="6SV96YwUpE69g-SIMWA9-45" value="" style="swimlane;startSize=0;dashed=1;dashPattern=8 8;" parent="1" vertex="1">
          <mxGeometry x="320" y="520" width="210" height="200" as="geometry">
            <mxRectangle x="320" y="520" width="50" height="40" as="alternateBounds" />
          </mxGeometry>
        </mxCell>
        <mxCell id="MhYocC3-HSQ2pXqJ2PAP-6" value="&lt;span style=&quot;font-size: 21px;&quot;&gt;PID&lt;/span&gt;" style="rounded=1;whiteSpace=wrap;html=1;fillColor=#b0e3e6;strokeColor=#0e8088;" parent="6SV96YwUpE69g-SIMWA9-45" vertex="1">
          <mxGeometry x="40" y="30" width="120" height="50" as="geometry" />
        </mxCell>
        <mxCell id="6SV96YwUpE69g-SIMWA9-31" value="&lt;span style=&quot;font-size: 21px;&quot;&gt;Feed-&lt;/span&gt;&lt;div&gt;&lt;span style=&quot;font-size: 21px;&quot;&gt;forward&lt;/span&gt;&lt;/div&gt;" style="rounded=1;whiteSpace=wrap;html=1;fillColor=#b0e3e6;strokeColor=#0e8088;" parent="6SV96YwUpE69g-SIMWA9-45" vertex="1">
          <mxGeometry x="40" y="110" width="120" height="60" as="geometry" />
        </mxCell>
        <mxCell id="6SV96YwUpE69g-SIMWA9-51" value="" style="endArrow=classic;html=1;rounded=0;" parent="6SV96YwUpE69g-SIMWA9-45" edge="1">
          <mxGeometry width="50" height="50" relative="1" as="geometry">
            <mxPoint x="210" y="130" as="sourcePoint" />
            <mxPoint x="160" y="130" as="targetPoint" />
          </mxGeometry>
        </mxCell>
        <mxCell id="6SV96YwUpE69g-SIMWA9-52" value="" style="endArrow=classic;html=1;rounded=0;" parent="6SV96YwUpE69g-SIMWA9-45" edge="1">
          <mxGeometry width="50" height="50" relative="1" as="geometry">
            <mxPoint x="210" y="150" as="sourcePoint" />
            <mxPoint x="160" y="150" as="targetPoint" />
          </mxGeometry>
        </mxCell>
        <mxCell id="6SV96YwUpE69g-SIMWA9-53" value="" style="endArrow=classic;html=1;rounded=0;" parent="6SV96YwUpE69g-SIMWA9-45" edge="1">
          <mxGeometry width="50" height="50" relative="1" as="geometry">
            <mxPoint x="210" y="44.860000000000014" as="sourcePoint" />
            <mxPoint x="160" y="44.860000000000014" as="targetPoint" />
          </mxGeometry>
        </mxCell>
        <mxCell id="6SV96YwUpE69g-SIMWA9-54" value="" style="endArrow=classic;html=1;rounded=0;" parent="6SV96YwUpE69g-SIMWA9-45" edge="1">
          <mxGeometry width="50" height="50" relative="1" as="geometry">
            <mxPoint x="210" y="64.86000000000001" as="sourcePoint" />
            <mxPoint x="160" y="64.86000000000001" as="targetPoint" />
          </mxGeometry>
        </mxCell>
        <mxCell id="6SV96YwUpE69g-SIMWA9-56" value="" style="endArrow=none;html=1;rounded=0;entryX=0;entryY=0.5;entryDx=0;entryDy=0;startFill=0;" parent="6SV96YwUpE69g-SIMWA9-45" target="6SV96YwUpE69g-SIMWA9-45" edge="1">
          <mxGeometry width="50" height="50" relative="1" as="geometry">
            <mxPoint x="40" y="54.860000000000014" as="sourcePoint" />
            <mxPoint y="55" as="targetPoint" />
            <Array as="points">
              <mxPoint x="20" y="55" />
              <mxPoint x="20" y="100" />
            </Array>
          </mxGeometry>
        </mxCell>
        <mxCell id="6SV96YwUpE69g-SIMWA9-57" value="" style="endArrow=none;html=1;rounded=0;entryX=0;entryY=0.5;entryDx=0;entryDy=0;startFill=0;" parent="6SV96YwUpE69g-SIMWA9-45" target="6SV96YwUpE69g-SIMWA9-45" edge="1">
          <mxGeometry width="50" height="50" relative="1" as="geometry">
            <mxPoint x="40" y="140" as="sourcePoint" />
            <mxPoint y="140.14" as="targetPoint" />
            <Array as="points">
              <mxPoint x="20" y="140" />
              <mxPoint x="20" y="100" />
            </Array>
          </mxGeometry>
        </mxCell>
        <mxCell id="6SV96YwUpE69g-SIMWA9-46" style="edgeStyle=orthogonalEdgeStyle;rounded=0;orthogonalLoop=1;jettySize=auto;html=1;" parent="1" edge="1">
          <mxGeometry relative="1" as="geometry">
            <mxPoint x="530" y="630" as="targetPoint" />
            <mxPoint x="800" y="440" as="sourcePoint" />
            <Array as="points">
              <mxPoint x="800" y="630" />
              <mxPoint x="530" y="630" />
            </Array>
          </mxGeometry>
        </mxCell>
        <mxCell id="6SV96YwUpE69g-SIMWA9-47" style="edgeStyle=orthogonalEdgeStyle;rounded=0;orthogonalLoop=1;jettySize=auto;html=1;entryX=0;entryY=0.378;entryDx=0;entryDy=0;entryPerimeter=0;" parent="1" source="MhYocC3-HSQ2pXqJ2PAP-1" target="6SV96YwUpE69g-SIMWA9-30" edge="1">
          <mxGeometry relative="1" as="geometry" />
        </mxCell>
        <mxCell id="6SV96YwUpE69g-SIMWA9-59" value="Ground" style="text;html=1;align=center;verticalAlign=middle;whiteSpace=wrap;rounded=0;rotation=-90;" parent="1" vertex="1">
          <mxGeometry x="1120" y="96" width="60" height="30" as="geometry" />
        </mxCell>
        <mxCell id="6SV96YwUpE69g-SIMWA9-60" value="Air" style="text;html=1;align=center;verticalAlign=middle;whiteSpace=wrap;rounded=0;rotation=90;" parent="1" vertex="1">
          <mxGeometry x="1100" y="95" width="60" height="30" as="geometry" />
        </mxCell>
        <mxCell id="r87C55WO3ufg_aptm7hn-2" value="" style="shape=image;verticalLabelPosition=bottom;labelBackgroundColor=default;verticalAlign=top;aspect=fixed;imageAspect=0;image=data:image/png,iVBORw0KGgoAAAANSUhEUgAAAHYAAAC8CAYAAACt1FrDAAAACXBIWXMAAA7EAAAOxAGVKw4bAAALh0lEQVR42u1daZBVxRU+QBLXqIAxKQXRyYgbIIsLahQsF7TG3RpFIjoCIoKMUQfQcoEolriUCBoERZERZVEBE42iSQSXFIWVmAgYBZQRRCXgMqCi0Wj65PWUfXvee7ffu7e7b585X9X5Qw19ur/v3T69ngZgZB3HC3td2DZhLwnryJSEjwphnwv7XrF/CmvN1ISNkZqoTXY6UxM2RhQQdjZTEzZOLCDsx8LaMD3hYoc8MbbJqpiesLGwgLDPMTVh4+QCwn4nrDvTEy5aCVtRQNxXeOoTNgYWEBZtHNMT9le7uEiXPIwpChddhX1TQNz/ChslfwDksIewfsKGEra/FemS0ebJKRIZ3CV/td+zwVJhbSmIegSL2cx+R0HYGhaymb1GQdg+LGQzm0plKjBdDvtZVIAlwtpRGkB1EnaWsFphYwjZLENBP5HzWV6JCgCHCtsUIyj2VPVyuscIAL8StiVG1AZhxzJV4aCH7FqLiTqfWixt6aL+h9eGw0MHYR8VEXWrXDZlBITthS0rIioK3otpCg/1MaJWMkXhoaqIqDgy7skUhYlniwyUTmJ6wsWLBYStYWrCRr4zTQ8xLTSA93Q2QO5WHW5q/IQpoQVexGcwGAwGg8FgMBgMBoPBYDAYDAaDwUgCvDayHnKHs49mOmgAL3ytgR82v+9gSmigC0RPNVQzJTRwBUQTeLRnSmhggSLs60wHDeARlc2KsBOZEhrorsXXM5kSGvgNRC8Xc3wlGF//wXTQmb+qKQImMSU0cIgWX89mSujNXzG+7s6U0MB8Rdg3mA6a8XUyU0ID3bT4eg5TQgO1WnzlxFhE8KQi7HKmg2Z8vZcpoYGuwPuvJDFSi68/Z0po4AlF2JVMB534uhGI5dVnNI+v5zIl9OIr2p5MCb34+ibTQTO+3seU0IB+frg/U0IDl3N8pYnHFVHfYjpoxtepTAkNHKx1w+czJTQwQhN2L6aEBuYpoq5iOujEV/U5lPuZEho4SOuGf82U0MBwTdiOTAkNzFVEXc100IyvDzAlNOPrBUwJDVymCbs3UxIPPE2PF5swfc4jkHu37U75b10zUsc5iqjvWPa1HeTyRU2Scf12yD0nGgR2FTYWcomu4t4Tf1fYaMi9wOgrvn4Ibh4vOlXYWsj/BDfeC/pRlgch+CV+DGaPxKv2nrBTPNT5AK0eF1ryUycFLMbBlCyKivda8j24h4/tLRY2Q9itkDvxt6pAw76F3H6oSwzT6tDJgo8BBqI2WaYeJqyQXar+zin+SvMdtMYu58EijXP5PPVsxe9aC+W3L7EH+1NWRMWubINWuUchPrPKjhDd+1TtK2GHOar/B4rfGRbKH1VGWNrHt6g/077U7+TUwRQPFWnc32XMton9wf5Tns+XIazXdWp8IfFViOYXHFxiGVfFNNB2oqxLHXwpr5Uh7D0+hZ2gVebKMsqo8Rxv1PjaYMnHo2UIu9CXqH3lF9pUkflldpuDYxqIsXZnR/F1piUfx5QwIm6yJb664Le1BYbdyixrrEEjT3YUXy+2yNktJQrrJTvNNVolqhKUVW/QSFtTn6GanwrLCzf3lyCs87QI7YQ1KhV4IWF5KwwaOdZSWx5TfKxzwF0bGTtNhP2ra2F/q60SHZKgrN0NY89tltqizr3rHfGHa+irDdq8yKWoWKlPFeezEpZ3puGvd7SFtnTWfAx2yGNfgx/0Yy6FvU5zfnjC8u4xFNbGpahLNB+Vjnu+OTFtnuCqIrilpqbGWZqwvNbaVKOY2ViUV+eW6z0MQLvGfLXO1srPTXnJq6+hqLYWDTakGFLKxQtF2u1s+1Ldjtss57JJMMVQWBuPFu2n+RjiSdhiizMVLiqwlxwBp3XCAIf9Gw2F7eUgvu7nSdj2BbrjrWB/8+P/qNMcn5awvH6Gotq6OzNL8bEB/CLfgYOlrpwvVpxugeRnk2YZCnuzpfa8D9F9Y5/INzp2cqa5rbBvFKdzE5aHC/qfGwp7sIX2VGo+hnoWdnyedl/mwvFZKc8pLwK/i+BDND/7exa2ztG4ohluVBxug/J3cUyG+KpdY6k9jyg+PgD/0EfG21KYcRihl7IwMT5hWR0guodbyPBvbJ3EX6/4mZ1BYZ0u/reBdDa7Rxt+rS9aakcl+DsJadoVT4AAsdxQ2CGOvo4DMsDJ7Vqd+oUmag9DUdOI4ybxdaOrRYAYPA3Rg/U7hSbsXYbCzrNYh/cUP3MywkuDUqeXQxMVT/1/aCjsGZbq8Esfc8UY6EuKN4Um7CmGouI1iO0cxdcDM8BLtVan40IT1vRcrc30sfUZjK/TlDp9Cf6ukZYFnCZ9YSjs0Rbrsc5RHC8F6tWYhaF9recZirrW4lekx9fhGeDlcHBzJ9ca5hoKa3PgMAjsby6UiknaNKddSKJizNhiKGwXR/H13xmIrzhLUFMPLQrtaz3DUNQ1luuhzl+fyAAvp0M2juaUjRng71xTE/bVfF2eAV5e0qZ4O4YkKnZ3psdLj3IYX7t45uUwrT63hva1mq4N44nH1hbrMVPxtSkD8VV9zwfXxYN7SOJaQ2HnWq5Hg+LrSc+c4GhcPe0Z5Hu0iwyFvcRhfK31zMmz2tcaXNpc3JhvNBTW5sHoGs1XN4+c6Edubw7xa+1mKOpGy/V42GEsj/uhvwHRu0I7hShsf0Nhf2+5HmrOwgUe+dAzlw+AQHGjobC3WKzDPpqvKzxxgaFmK0Q301uFKuxEQ2FtJvPQzy9398ADdv1LIJoBoCcEjAcMhT3NYh1maKs7PuLr1RQGTCpM7+Yc7yi++tjrxDnrl0odlgn7cejCPgh+lxI7QfKMcUmApyzVPFh4V6kzEMDdnr9YPb66TMuOXf7TkK2LX6nhBkNhqy35VzOqfirnka5wG2QkJ6INVBsKa+uX/K7DubKKAVr7VgrbhZKwBxkKO96C7701H1c5avMJkFv/VXeSKoAYMM58ZCDsXxzEVxd3TXtrixB4huk4IIqZBsLisdS074Kq8fUzB/H1UIhmq0MbBIRxqmF33Ddlv+8oZf/Bchv7QPNdrHFAHNgdrzIQ9uEUfXbUyq6z2L4qbQEC7TpoIRhiIOzXkF4e/oFa2bZeARkJ0YQreLFqFLQg4Fdr8tDB4yn5U1e8Gi3EVxwPTIPmj0XVQAtED20aYPM5kjVKec+k3A68JrJMq/NncprTYjHIQFiMV0emGF/TzHF8YZ5B0luQjasi3nGTgbiNCUbJF0C6uZSbvtJ8jyHhbb2fsqQ/4AaIz6yNMetqKH3/dDpE0wImea4Td2cm5Bn14iLEpSxjflRrqzSFDBNFHlFmfP1jmXXDG2/XQ+7gm14fvJZRwfIVB+5NLjZcwHhOzhmLjXA7aP9nTIn1wWXHKQV+cHhNBZcpW7FsZmglCWswFBgJngq5m2rtYuJr7xjfeL0T32idKAdB+fxtkeOCXViq8ueGGLdWQGkvSb0t57940vHPEF1/xgeKMSNLpezOMblJrZyDvgrFUydslmW2Z2nSw7GS/E1Q+iN/SQwHdK9ALrPMDiyDPeCIFhON4DLdU5C7hZ62mI2y7FoeFPkF5j3sLwdG98mR75uQe60yTkDc8cFLYpMhdyq/d8LpEMMB1Ft9y+XX11ZaG6Yn3C5bTV4yiSmhgd5at3sOU0IDo7WR7R5MCQ2oB7NXMh00gAMj9RDZFKaEBnqC/adIGR5wpSbsnkwJDSwA+2/gMRwDd4bU9eTpTAkNdNG64YFMCQ2MAPtPfTM8QE1uvY7poAP1ffWZTAcNdNa64cFMCQ0M04StZEpoYJ4i6vtMBw201uavHF+JQM9aXsOU0EAdz19pQs3QvZrpoAE8WK5ewZjGlNDAMcD7ryQxDqLnm37BlNDAyxA9P8wgAHwi7GtF2MlMCQ300eJrFVNCA2MUUfGuzs5MCQ3MV4R9numgAzV133Cmg9ZUB7vgf0FgT15nBf8DenwHD4kJakoAAAAASUVORK5CYII=;" vertex="1" parent="1">
          <mxGeometry x="545" y="568" width="18.83" height="30" as="geometry" />
        </mxCell>
        <mxCell id="r87C55WO3ufg_aptm7hn-5" value="" style="shape=image;verticalLabelPosition=bottom;labelBackgroundColor=default;verticalAlign=top;aspect=fixed;imageAspect=0;image=data:image/png,iVBORw0KGgoAAAANSUhEUgAAAF8AAABICAYAAACQnynWAAAACXBIWXMAAA7EAAAOxAGVKw4bAAAGvUlEQVR42u1ce2wWRRAfaC3iC1FQUUDRGkVriAYMGqnPQFFiTBDjA40CUeMDXyj8YQy2CRGrJkaBGGkNEik0JEVFaXwGERQLAkKxxYopIkqsIAWxlFrdybefXrd7+7jbuxu5b5L5q9/Mzvy6tzs7O7MAbqkP4yLGvSDdNIbxCsZ7GLcwXst4KuNjohgsj3E54zbGfzPewPi4FIKOk24Bx0DGmxkPcD3oLMlAD6YM+HzGtQrgs7ye/9YJjWL8l2SQeSkDv9wA+CxPdTFgAeOtEuX4z7gkRcAPZXzYAvxGxj3CDjrdR/mrKZv1L1sAn+VhYQYcyHi/ROn2FG626wOA/1CYAaskCjsZX53CKKchAPhzgw52lY/CV1Ia1y8MAP7yoDH9ZomybYyPTSn4F3jOOKb8eZCB7pQo6mB8ecpPtZMtwa8LMutl69tzkCPgy64p+J+4mPVbcrmcf+kovpyYgL/MdtY3SqKbUTnMu9DpkEmo6cBfYKN0okTBwhzWUrrPAPwXbRR+IwjvgwgydEcI5RnE/saJx2KJ8FM5jJV0lwb8ElNF1YLgLojoYuAIoqM1a/+5phtIu8u8RIrodR/g8VxUYKLgWUGwORdaGtMEH/C3mgjn8yXGKzglh6kx9fMBv8pEeKwgtJuvZTkyp90S8KebCL4hCJXmsLSmlUEiHVzXf/cItPPNN0d2VC0BX3s+ukkQWETQsf78vDGH70V5BG2sEHD80URosSBELWWMd6C/gKPboQhJzHRW6wR6Mz7gEfgBHNy2OySMwholn3MbOKyJcURvCjY+phMoCZMESvjofhoxW5cL9o3UCbwkCFxGzKEvFOD3JmZrg/Blag+oWzwCOxn3JOTMYMjcI8iAbyGY3+nw2LdKJ3AG0K5IeFgx6z8iZusIwb6ZOoF7BIGx/4O4Ocuzidk6TbCvWCfwFnTNvp1AzKFdCvBHE7P1XY9tf4BBJvM7j8A6Ys4UKoA/SGyzxY211WNfrU6gr7CZUSvzvlsBfi0xW8VwXXvzdx3QbnCYrwD/cWK2zhPsK9IJiCXf1MpCNijAv5DYktMiZAi0tBQss28xUk++afk1G1CiCUHC9SbomkKmlCU8WzHry4inFLThOiakvK0tzcQcul4BfhEhOwcIOB4Ag9u/IYJDG4mB/4QP8PXE7HxSsG+JidA1gtAaYk75lWE8Q8jGfL65eu0bbyI4SRD6mPBp0VuoW0jIxtsE+1pND35lxMFfLQH/U2I2fg0BC4nFtvUviTlWLwF/IiH7RkvsG2cqXAPd3wmgQniFKda/7CWWy/kMul+UG4fqHwjCO4jndCh9meMl9s20UbAGurfwU6jJPB7kaeRDQKNSGtPE26B7IeyZNko2ShwcSsA5VTLtSgL2zZDYVWOrpEmi5EZiOZJQn3YEhMm8PyV2jbRVtEOipDxBx84CfWNZkqdbPFCtk9gUKET/VqJoU0KO9fUJLWV8UUI2lvnYc20QZXU+J8i408q9+OHJtJk4iYKum0FevhI4AvNzeFrMkcNSsGujx6xh/xhtvBi6llJ6eUxQpYt9FH4Pmc7qqAnDxvcVILcq/hbX8wOF/PDk/A65VOHcAxE7dSLImwi8Pb+q+sw2PiOjpPMY/wT+DW6h9p47FM5hk8TAiJwawb8u1dKClb39QP9uWVQvXGE5+s+KseeHHWC4xrmvHJ8oe3BQD2nGXQv/lX03a377Dhi2WFoQPuVyUDMxQwclBZp1NftMSR8HDhUZRjS4sXmbhSsMZD5kfJIDG0+G7rX1Mp7k6r9cYzAY5jGuCLFuYura9BnEewX5GwzlcG2+BYI1dGCmFEto9hqM857LT+x+Q+cwxsUb+nEGyTdsopvCZ3qnRQhZ4XMG2GehA9Pij0CmrNwkVVCq2FRF3gOOGwQHg/x1WN3SgBnRSsg0VWDYh9Vay/hG2gn2j7+tVKzdcwPoy1ZjrOCb42xu5xw+e3cG0HdrFDt7bUDnXHETj2xUOZ/2hG2cFVU8W5KgU1ghPcjAxsoEbcQTeKSdOqsScKrBYg0dZLn2u+I6iOECZ1jMnzYWwNp2EU6OGXi8bDolrgTS0zE5VRViNr0Wk42reZo7NsIYuTpCh/ZD+Odj8kD+prNLroSE7rIxm7kkAofwMDfEkY24+T0fMKRV8W+Mb4eECZ2b4WgPwINWVK+MY9HSdgc2HubnlFOBEJ3Pv4IOS2da+GFmeEyXMfim5aYAoKOdLzA+BwgTzgjs1cKW0XpudAdfw7G+BusVF/Gv5VJIrsECk3eP8gmDNv3Ks5MdPDWAoe3bkLmLLYYEHsz4B0O2K4Y3CskGAAAAAElFTkSuQmCC;" vertex="1" parent="1">
          <mxGeometry x="546" y="616" width="15" height="11.34" as="geometry" />
        </mxCell>
        <mxCell id="r87C55WO3ufg_aptm7hn-14" value="" style="shape=image;verticalLabelPosition=bottom;labelBackgroundColor=default;verticalAlign=top;aspect=fixed;imageAspect=0;image=data:image/png,iVBORw0KGgoAAAANSUhEUgAAAZQAAADJCAYAAAAEosQ9AAAACXBIWXMAAA7EAAAOxAGVKw4bAAAgAElEQVR42u2dd9hVxfHHB0RAEBA7IsGKiiUGG1E0KGo0FsQuKk1FbFExlhjsosaCXRErRKOCBWxYUFDBHvvP2BsgGDsidszOc8/95bzHe3Zm790959z3/X6eZ/4Q37v9bJnZnSECIdjNyL+NfGvkXiNLoUkAAAC4spGRH438EpOH0CwAAABcOSuxmJRlYzQNAAAAF85MWVBGoWkAAAC4MCBlQXkNTQMAAMCFTkYWpiwqG6J5AAAAuPB0yoJyHZoGAACAC4NTFhS+RtwFzQMAAEBLKyNzUhaV29A8AAAAXDg+ZUFhGYrmAQAAoKUllW52VVpQfjCyM5oIAACAlj6WU8p3RgahiQAAwA+djexIJRVQY5W3LYsKyxVGWmAoAABAdSxiZCylv9doajLZSGsMCwAAcGcnLCK/khMxLAAAwJ1jsYD8SiZiWAAAgDt7YAH5lZyEYQEAAO4samQCFpH/lzsJNhQAAKiJVagU3fBQKj0EbCxyt3IhmW1kbwwDAAAAldjeyAJhIeGIjhcbaY/mAgAAUIldjHwvLCavGlkfTQUAACCNban0+t22mIwz0hZNBQAAIA12sfKtZSGZb2R3NBMAAAAb6xj52rKY/MfIxmgmAAAANjoaecuymLxrpBuaCQAAgI3mRh6wLCa80CyHZgIAACBxINnVXDiZAAAAUPFiymIyz0gPNA8AAAAt/66wmPxsZDs0DQAAABf+UmFBOQPNAgAAwBU2yo8wMpdKaq5zjDRDswAAAAAAAAAAAAAAAAAAAAAAAAAAAAAAAAAAAAAAAAAAAAAAAAAAAAAAAAAAAAAAAACgqdHayEZGhlLJWSM7aWSvv0cZ2YlKYXoBAACAiixmZKCRu4wsoPTIieUYJU8Y2ddISzQdAAAAik4bI418KiwitjjvfdCMAADQdFnUyLFGPrcsFu8amWhknJF7jbyd8ncLjfydSvFMAAAANCE2IHv8dl4cuqX8dgsjU1N+e4uRFmheAABo/HD0w2OM/JCyINxnpLMiHT6JXJOSxmg0MwAANG7aUUl9VWkR4AXmYHILt8vG+JdS0jsczQ0AAI2TFYy8kDL5842uHatMtweVbnxVSnMNNDsAADQu2BbygWUx6V1j+g+kpP0omh4AABoPaxqZTek3s/bxkMdelH5LbGd0AQAA1D+scvrYMtn/1VM+rYzMT8njZXKzywAAACgYXShdzcUywXN+Uy15bY3uAACA+qSDkdcsE/yH5N8X19mW/CahSwAAoP7g9yF3k90HV+8A+fa15MlXkpdG1wAAQH1xBtn9bl0UKN/uQr7D0DUAAFA/7Ealm1s2VVe7QHm3FxaUB9E9AABQH6xl5CthUu8buAzzLHl/SyX3+AAAAAoMT9SvCYtJFoZxqQy47QUAAAVnlDCRf29k9QzK8ZhQjlPQVQAAUFx6UWVfWnE5P6OyPCiU4150FwAAFBM2sL8nTOKfGFkio/LcJZTlY3QZAAAUk2tIDs87PMPyjFeUpwO6DQAAisU2isl7FmV7s2qsokzro+sAAKA4cCx46UZVHo8Jr1WUqR+6DwAAisNwxcTNtpWWGZfrRiqWCg4AAICFZY18qZi4D8yhbLcpynUpuhAAAIrB1YpJm29Ttc6hbPcoyjYRXQgAAPmTFr89KSfnVL4pirJNQTcCAED+TFVM2BwjfpmcyveMonxPohsBACBftlRM1ixX51jGWYryvYSuBACAfJmmXFA2zKl8ixj5SVG+t9CVAACQH1srF5M8d/+dlWX8CN0JAAD5MUM5WR+eYxk3UpbxM3QnAADkw3bKiZoDWHXMsZz9lOWchS4FAIB8mK6cqG/NuZyHK8v5JroUAACyZwPlJF0EH1mXKsv5AroVAACyR+Mbi4Vjyecdr32Ksqwz0K0AAJAtnagUulczSd9QgPLOVpb1IXQtAABky2mkV3ftkHNZOziUdRK6FgAAsqOVkbnKCXo+5eMIMs4fHBaUceheAADIjoF1tuM/yqG8I9G9AACQHdqrwiwHFaC84xzKezC6FwAAsmFlIwuVkzP/XecClPkVhwVle3QxAABkg4sx/l8FKG8bIz86lHlddDEAAISnmZF3HCbnUwtQZheDPEsHdDMAABRvct6wAGU+waG889DFAACQDdc4TM5zjDQvQJknOpT5RXQxAACEh12nfOUwOd9QkHLPJbxBAQCAQrEjuam7BhSgzKs4lvkYdDMAAIRnjOPkvGIByjzYscx90M0AABAWtoV85DAxv16Qct/guKAsi64GAICw9HScmK8oSLnfcyjzbHQzAACEZ6TjgrJ7AcrcxbHM96GbAQAgPC6uS342snQByry/44ICp5AAABCYlR0n5jeodLsqb7nJsdx/RFcDAEBYhjhOzPUo7OurHboaAADCMrYJLChPopsBACA87zeBBeUcdDMAAITF9aZUvQpioAAAQGAGOE7MzxkZXwCZ71Dmn4y0R1cDAEBYrnVcULYoQJmXILeAWk+hmwEAIDxvOkzM31HJI3He9HNcBE9ENwMAQFj4Gq02djzL9IKU+0rHBaU7uhqAXGhLpTdjv4+kBZqk8CxqpBOVQqX3NrKa9oebOU7MZxekwm87lPktjA8AvPIbI1sa6W/kCCOnGLnYyD+M3EslFfMHRhZU+B4noPlyY3UqXU4aaORYI+cZud7IXUaeoJK26kuq7BllZ00GhzouKDsUoFFWcizzuRhHAHjbuU6j2m5bYoOXPez4d3aN/fY3TUajHRJk1diSBWicYY4NsRnGEwBeWJdqv75/HZoxcy7w0G+qy1hPOCT4ckEa53aHMn9sZBGMp+C0MXKkkalUUkdOj/4b+vLGBb9Zm0+1TUwD0IyZc3SNfcaqy1ZSJs2MzHNI9MoCNAwvDp87lHkMxlJwfmvk3ZT2Z91sczRRo4KjtO5lZCiVVObHGznTyGQjPyi+ya5owlxgtdfgqN+OivrtciOvKvrsEU0Grh6GBxekUVzK3AvjKCh8e+cToQ92RTM1GUYIY+E9NFHh4IOF9HTkZE1CWzlOzusUoPInk5vxrxnGS1DuUfTDVWimJsNpwli4Hk1USF4jD/YTF5crrDctgi1ihkOZR2CcBGUFKl0nlPrhBjRVk+E+YSwMQhMVjiWF7/hbI601CZ3kMDk/XoCKL6+cwMo30lbGWAlKH2VfDEdTNRk+FsYCvsnisSt5sJ8wYxwWlFEFqPhhDuV9GOMkOL0U/fA1lV7cgsbP6sJY+BBNVEguIQ/2E2aywwTdvwAVf5hwNbFI8DH4U6EfDkIzNRkOEsbCWDRRIXmZPDkD1lwXK8saOVd6KdJ7F/6MSu8iQHj2pFJogEpORA9F8zQpbhS+yyFoosLB86oX+wlFE69mgv6K8n9LMJgQmbGosMM/jk/DN0WepdKrXOjKmx6zhO9yFTRR4diNPJoONI+QihKL/R5lWblOXTBOAMgU2E/qE2/2k0UddvzX5lzpdtHRS1PWmzBGAMgcyX4yDk1USLzZTzo4LCh/ybnS/R3KugnGCACZI9lPDkATFQ6v9pNOVD8u67XOIGdgjACQC5L9ZDU0UeHwaj9Zleoj2iGvot8py7k7xggAmSPZTz5CExUSb/YTZj3SvzjP8wrukcpy8hVoeLUFIHsk+8mNaKJC4s1+wqyvnKjn5lzpF5Tl3A3jA4BckOwneNxaPLzaT5i1lBP10zlWuoeyjLzowKswAPkg2U+6oYkKh1f7CbOKcrK+K8dKX6ss404YHwDkAuwn9YlX+wmjveWVV/xnPpItUJTvGZxOAMgNyX7yTzRRIfFqP2FaUsngLk3Yf8+pwscrF7ztMDYAyA3JfnIwmqhweLeflNH48jouhwq3MPKBomz3YWwAkCuS/WQNNFHh8G4/KSOFfWQ5IocKD1SU63sMVgByRbKfzCGoo4uId/tJmWmKiXtoxpXltyQat/ojG0HHstpxAyP9qOTaexiVHmey995FC1TOzkZ2NnJgJH2NrJRTWVoZ2ZxK3qe5vfYxsnF0qg2hGtjUyH7Rd3AIlVyIcP3XjvovFNz/60ftPiCq6yAju0T1bVWAcSHZT24Rfr9IVMd+UVrDorr2NLJ4HXy/yxnZOhqDw6KN8J+M/Kbg5fZuPykzTjFxD8y4snsqysSeS9vW6SKyppETjTwVnbLS6jjPyK2Un2+yltHk+aKljK9HJ9jFMihPm2gT8XlKWb6hkj6/Z4358GJ+qfL0zh4cHogWGh/jkSeiY408QbIzVB47fKX/GCNL5zRGJPvJISkLJYecvTMa4zav4dOiDUxRYhvxpmUbI1eTrJLn8cN24PYFm3+C2U+YExQfzX4Zn05eUpRpjzpbRLheOylPhJVkvGXSaBulfUC0m/ZBT+WEWpZ3jGwYsP3YD9QbDuXhjdKSjv3DDkhfqbJ/WP5j5GiqzlsDn1I5PMPCKvPmhe2cWiaCKpHsJ90TbcyLw3tV1G9utDjl5QmjXbRwz6qi7Gyn3tuSdpdoPusfaQJCE8x+QtFEJDXIgRl23H6K8jxQZ4vJH4w8L+w0HzFyjZHzjNyQovL7MFKzJE9zyRC8vGh1qKG8B9Kv4+R8aeQ2IxdGp6YfU3Y2WwRovy4VPmQ+NY0xchWV3jmk7RBXVJ5I/pWSxhdG7qdS6NpRRi6jUtjsbyz9yQtDR2XdljcyIWUhmW/kUSpdu2Wd90VRH3wq7IpXzWhcS/aTj+l/9hM+lU+v8Dc/R33JG4ALonZ+0rKwTovUTFnBKrnDyH55abaRO4xcHPXTXSmn6AupoT2JT/VXJL413hgMD1ynYPaT8s5PmsAPz1DF8o5Qli/rQD9ZhnfIN1vq8makN07TFa8TqQXiv/mE/vfqmHW3P6WkfUGVZU76Tfs06v+kvn5fywS8osc2bBYttvHd3i6Jv2kfqQ/TJtg2lsnipAqLI7fxWVTS7Te39O0Vlr59jGQbWKXNwNdRur0o3T7TKlKLpYXDfs9zH9g2HtKpullU1qT67u1o4lwmJe3u0caxUrofUDaei38nqHsnRhqB5il9NCQ6WcV/c3FsXN+dku7PFTaOPglmPykfQ7+hYsRCOVqxuPWvk8Vka8vxmD+uE0lvRB6eWDj+L9rd2FQHz1VR5t0TO8PnLUfw5tHkF9oR4P6JyXajlL/bzNIWl1X4+8UrTFg8uQ91VBtdaMn3IssieVaFU+qZjidL203IJyn87SrJfnJstKgkN4RHku7CySLRqb1S2jONrBCoXtxuR1G6h/N3ovGmPV0ntRO8GdtOaLthgeoW1H5S5hmhcidltJv/RLHjqQeOspwcZkY7H1cOTqQzRWir6Y7pd41OF3H/bZKR+fWUvLnuy3poxzaR2kRzUuYFbg6lG3c7Jz6q5InmlirLvFiFXWh8p7lu4u8XjfJK+spbs8o2mmoZA/sHHueSPSH5PU+tQrvQ0jI/PUX+b0K2rtA/cbmzCnUy//0biXaZKLRdv0B9FtR+UuYCIZOzMpiELyfZH9BSBV9IeFK7kuzu9TvVkP5Y0hsCL3HUEz+eUJlo9NS2q92DPbTnIbH0XiLZIPuYpTynxT7ulxM66/0Dfj9XJ9r55gr/v5brvzab478DjvXVyc0wfXFU/2robUl3hOfd+3RLXtfXUIe1SR/T6Zca5wkbQe0nZfoKmdwQeCJe37KjL8dj2b4OFpPrLHV428Mg4Ul+nnJA7u2Q7pGJXXUv5e9sJ8qzPbTnG46qzknCia1FQs3F6pfNA+/6PosthFcn/t/pHvJeWRgHqwca7wc6TI4+VOZpl1q+8aT64ksUtjAZN3tQIY5SttcHAeepoPaT+JHM9h7ikcAT8RNCJU+tAzXXGEv5vyJ/7rvP9bzD6ZBYGEY7qChtV1yvqbGe8duHH5PO3vSwpTwLEn30jafFhCIVpq0vOJDdEYl/O8NT3s3IrhMP5eXiRuU4PNpTficLp59aaB+pHW3hO3y8s1pWmGfji1cIMrGflHlA2F2H4iihce+k4kdhPFE4Xe3qMa81FQPydYf0RiYWPu111x2FMtQ6Yd5dxYTxlnKS4z7xqaOWQmmzOjd+NXQc+TWYf2nJ+/xAY17zHsNn3luT/eZntY9KWYU1WdgMdvVYjzsov1u1mdhPyhxK9ncSISZ1jscy35IvH8+K7n5hd2GnPjZAnrOFgaE9ZbRPqNBcvEpfJpRh9xrVD/GdXG/Fb9oKu6+4jPLcH90d1D9sSPbpMqUZ/frNUFz+EWD8aewnD3ieM1agMA+dJTWU7zd4mnDm6weaqzKxn8SPQzajUXfPlWMVhs2IymqYlQu+mKwk7A5Zf75MgHwfFwbGPsp0Dk8cdzs5TGLvW/L/0eGkU4kh1PCqsMZf1pYOE7rvm0GbKfP+KtpE+WQJIc9JAcafZD/x/RaJoj77xfPGbXchzRnk/+r1VkKe86h6w79EJvaTOP+k7GIanGnJ6xsK8+LaJ9zp0yn79zvNo4nJh/0kfkvLRW+7hZD/lBrreA+5RwsdoZjQv/Csviij8YzNMiBA3usKeV4fIE/JfnJuoG/OdhJ70zEt/kY+FeqxeYA6/FlxsgtBpvaTMr0sGfp8rLatpXJcsW2o+EgDg08uHQLk20PIV3tVdL3E73Z2KMO4gBNni8SCqdUnT1ZM6IcEGguaixITA+UtuSoKERxPsp9sGiBP6SS2kNzsKHcL6U0O1F/jKZ/YU5naT+I8ROn+anwcxbpTwwd0SQd39RB9cVlLHULv0iRvAlr7yUmJnXsrhw/bFpaZbWK12L02Ivdrr80F1WM5THSoyx3TFJuLUP6npMVsiOf8JPvJF4FUNho7lVYtv4MirT6B+usjId8NAuWbqf0kzqYU7vUmHzPfp3TD/w5UH4z2OLhdmUR+7Cd3V6kWOYxkL7+1MDyW1hvK32wglOnngB8q23ck10UhPU1Ii1kPz/lJ8U/uDFTPrRXfXG9lf70upMOq4BBua6TF+LOAm57M7Sdxrg9wLOpM6S+r59fRYrIiyXfJnw6UNw+2z4W8tY+8To2dCl1UFM8H3tnxCbWsK9fa7Y4VynRrwPHQU8ibVbih4mG0JnvMlO/JfxAuyX7y50B11dipdlSko3mQeXygOgwR8r0tUL652E/isO5/ZkrmfatIj99OpAWj+Sjg7jEEF1I2L4MrIT2ge90xPfar5HIbSzoJvOdph7UUud0SkuwnfQKOh7/ktGMnsrskYXk8QJ6S/WSdQHW9QPHdSd40kt4X0k6zXTLeqIe28eVmP4mzBVW+RvyJ48fOBto0e8OjFM5jaAj4teyXioG9VqD8hwv5Xhm4/lcK+Z+SQ5+0JPtbJt6lh4z2dydlf7OrzOlC3qd7zs8l/knWqj3NZYBdSXetPBRSaI5ugfLNzX6SZK+UoxKfXqSwtL+l9JsU/E6BX1K3oPpCE/zr3YD5S/aTvQPm3UZYTHmcdM2hT3rlsEsvw5Pnf8h+8yjkhuk5oe5bes5PUheFUi1qrsprTkf3KtIINbmuKOQ7K+A4ydV+koSNvJVu9fwQ7c44SBAb/laJdghstJ1hKfzz5N9QmBUPKgbkZQE/Ksl+0ilg3QcJeT+YU5+ckvEuPc46JBt3Q7E82T008IPQrO0noWJ4rKH47rgtbLaq5Sg9IFlcNgpUh30pHwe8udtPKrGB4rgmCYevZZfmi1B90oZ07qf/FCh/X+9PqsXX63zfPEr52U+kG2+XBMw7DwOvZD8JpbLZV/Hdzayxr8oqu1C3rK4S8h4cKN9C2E8qwbsdfgPxKbktJHzjaUCA3VLWbK+o6wIKp6+X3p+EtJ+sIeyGWRW2WA59Ii3yvCMN6QtugtAnuwXM+z4h74Ge85PsJyFVNhcpvj3phflERRpjA9ZBugywaqB8C2M/SaN1tAsfHenm4hH1vo9OMrdFE+Aq1Hg4RzEgQ6720gcR8oRwfk5qPoltKZ/r24xkP/klUkuFYEmyX11ndfTSnvMcTPm4XKfo9C19e7a3PqwV+UKRRqhvSFJPNhn7iRZ23NaWGjf3KAbk2YHybq44GYYy/rZUTJx5XfseSdm5T08i2U/eDJj3AULe9wbIU3rMe2Sguq6k1IT83pLGeso0VgxUhz1zWowLaT8BJd5VDMhdA+UtvT8JaT/ZQ8j75Rz7ZAblE5ebOVzI+7qAed9P2V9VfraGCb0Whim+O76sYrsxurcijY8C9tcV1ITfn4DKJwRNrI1QD6KkIGSjc5y8jsypT9oIah9WMSwbMH/JfjIkUL5Lkd3rLu86QzgltV3bDfEiv8wkxXcnjf/TFGmEfIAqBX5bO1C+hbefNFU6KAbknID5S/aTUO9PeIH8SZhIlsmpT/qQX68BLmjsJ2vkpO4KMTFKnn5D2apY3TpP8e1JbuavU6RxYqA6dBXy/YTCPQatS/tJU2BFxYCcFCjvPO0n0s5ufI59Ir0SvyZg3mtTfi/Gpwp57xUgz86Uz/XoPorv7jVFW9+mSGfrQHWQHoPeHvAkC/tJQVlZMSDPCpS3b/9dWvhmzIdUm++kOPywzOetv2lC2fYPOB6kNw3jA45D222hr8jt2npX5WZEujIcSr13reK707zfkNS2C6NTWAhuFvI+SpkOX3xay6F/JTczjzjUoVuOmohGyfKKgX1AoLzzen8ivbuZRfpHqhz2tKz3P9pD2SQvuyFv7DCS/STUi/FThXzHOKQ1lP7nMkd6jLsWZevihVmMZHcrM0kXHvohys8gP4f8hBeYHCvrUoq/v5j82E/K8w+/6aqHWFV1QWthZxjyRXZe709uF/Id6ZBWXOXg4/bTH4SyvRFwLGjsJ90C5SvdNHS5afUa6b1jryTku1qA+vZXbOIGKdOSDPuh/L2tJuT7lXJTtia5G/FfIj/2k/gboLwu4DRKZgsd9LsAefIxV3qQFcJ/13Jkv0m0kHSRFBl+qR4PQDXUQ/lOpvy8Bkj2k5mB8u1N/q6OJ9/Q9BL+XjLKh4hG+YyQJzvG1LpJuUZI66ZAfTaI/IQZPoIaeqWQFiHJfsIePTS38rpRNlfDmyRTctiV9qV87CdSwKpHHdKKvwH42dMC+LBQvj0CjgPJfhLKfYdkT3AJCnUGNbxAoNkl29RPvgOISR6kf3Kc3EZQPp4eriY/N8vuIjcjvi/7yZHUMLRzvXmHLzRnZHxC4Y9cekwW6v2J5BZ9kENak6pciNJoSfaY9rxoLR1wHEj2k4EB8pTi8LgEhWLV2Zux317h4cTg+4QiefU+x/PG7NxAY0VyGdNLkUbrxAlfE8X0bPJjP4n3wwQsAX7ZXOikrTzn9zfKx/fQSiS7RV/cIa34OxYf72Wk3euLAcdAM2rou66S/CZAvpK3gqkOaW2X+O16yt9dTtm8ufmjon9dH1EuJ4zpywP02aFCPb5T1mP7xMahs+Mmrlp7L7+9iz8cHkDAK6yvtbnvPsxjXluRHLc+lP1Eujd/rUNacS+xc0l3I6fWhXZUwDEg2U/eCpSv5Prc5YZh/MaTizG6H4V/ILeYsKv/jKr3yms77fv2pcWbnh+EPntWmdalVWwcXhVOsxoV5V7U8M1KewLeselifenON4lOAdJiEsp+InkW1l4RXSFRj2MyUofsGLD/JfvJVYHyfVCYIJZUptMz8VuXa6BtLeNyuKd6jiK73WSbGtK22QVf8dhX/NZqjuL71Vzx5k3sh47qLuZtS75zlWncFPvNHZj6w8AfblrURP73Wl+e8k5PE7M+pP3E5sjue9LHPRlHDYOr+XiVy7fe5guTTsid1HjK/pU6kf11vDYqJE9Oz1WpJiszJqUMPvTru1D6zST+91ptU3zzKc329iP58X/Gdqz3lN+vxiAfD8+wwGHjMKPG8dKOGrq82ZVALrvUWh437kl2Y3NW/rtO87CTY5VdXGft6yV1T09qhGrgCfmTHFSQzC1Uexz3uHfkhdFJ2JU1qXIYXZfJrhI9LBuFhQ47c4nzKJyH5pXo10G0bFd3NR6G47aQKxzKcqsl3ycUvz8k9vf89qleo+zWBWyYTXPlwA/eXG8Y8YeYvCf/GeVjP2FsD8qmKVVdc2O/uZ/8+bUaLrTJBQH7fX3KL/6J7daO5srrxtQwsmUtcWKuTCnHCVWmtyGl+6r7gfwagztS6aV52mak2nHaMzHmeRHkK7e2pwZ/E9L8bWxTxidvl8ejNjuo9F6J7ZzxcO94zJgBHSnd8PW0Uu3Cd7rZD1Hy1tDjJAfkCelJd8mUXSjLdMVv48ZPrpvPqIWSk7++AdtFcoFzdcC8N6HqdfH8AHUmNXwQWMvlCB7bH1Qoxzfk/mKe7V1p71tY9RvCYeOfLCeHQVWcWnmT821iMSm73tmfqlNZN4/mAddTaPw7TAuNzSdBm/r5hMQGuR2m+2zgifKFlE57N5rcKh0VWc/KBsK3Kxzt2f8O2wmkh1ijA9ct7RHdbOHIH3eXzbuq7T2X6yOyx4/vGLBNbhH6pH/gU3HaWHtYOJnMTUzSPh7g9qCGbyPiLm8072HaRWN9oWVTFjJ8+PGU/oJ8M2UaGxl5LPF7tjvsEvsb/pZfScnrw+j/V+JMani9uJqbbadVsfFK3k47CNN8tvB7jBvI7sb8PiM3UimEcNrti+cTA1m6ybR34HqxOi3NXrBXhR0r796/TiyOvj3QSh6fHw/cJm+Q/TLAUoHz3yRlZ/1zpDZKbnbOT5w05ztMlhq2osp2jzmRmqpFyiZsOKX7QuPJ83TLROuTNPc9fPHkuJSdOddpJyN3V1gM+Rteq8Jv1qV0R6bnJdRsPJ8kb7qNqLJ+raMypRnml05sWPZK9OejpHdtAzzDH6oUpyLN79OhiZPMoiRfG+6UUZ0WpEyed0SnpMkVdqo8KYR4cLmp0CYnBG4Pm11rRkbjbFDKosITwfhI7TatgspybnRa8Q3bld5JaRO2i7CbEH40yFdQnyJ7sLZ7Se8fzhf7UHoAr6+j8T06OrFPSflb/kZOFdSIfVNOdCwvRXncXmGhva3GSX1pSncSyRtGfjuzUPgAAAMwSURBVOpwPTV0FPpL1KedCOQOv6a/UNjNfhnpRHdL2YlJN5lez7A+PGG86bBA8ivm3wUqC7+DSHOU+QrpX+9Xy+0WNcnGGfbJzgk1libw2woBy8P9ci653VCMb04mVDhhZQmHObiZdCG+kxun60jv8oZVZC87pH8t+XkIzP1zKcne0svCqtWumMqLx/LR5MpGQHadsU2kC5VukhxH+dpPkrB7iGGWnQ5/iKzz3pfCO4/bkRreCOKPhEPeLplBO3ShX9sxXqPqrt/WCteX3zG8b5nsWMW6Zcbj/a+RmsU2ObMR/sHoZL5sgb5Xti2dI2wGf4xOoydUWXbWRLCh/mHLae1ZCvM4l9VxV1rUjR9H/bcYgUbFPZSv/cQGH4O3iz4K1pOz36WsI7mxbrtfpK7olnHezaNJemCkEiyCjnnVSKXCb6D4YgA/jm2Tc5k6Rqd17qOh0WaDx82aVB96eR7n7O9qv6j8bGhnlWsHj3ksHo0hvtHJxm+2zaycQd14Q9s9ym9I1EcbE96aNEoWITn+yQpoJgAAABI9yF8QJQAAAE2YY6hY9hMAAAB1St7vTwAAADQC+CGSdPUS9hMAAAAiOwuLyatoIgAAABruEBaUEWgiAACoX/hOP79YfYZKrlU4pG0Ip3X8SMoWMnQhhXWWBwAAIBBszxiXMrmzPx/friJGCqeTf6JLAACgPrlZmOCf8JgXx5CwGePZqVwXdAkAANQf25PsQI1VUG095MV+sp4S8joWXQIAAPXJhIwWFPapc5OQz43kL3wuAACAjPlAsaC8VWMe7JV3LMlqtdboDgAAqF/mKxaU42pIn4Pe3C+kz6FFl0BXAABA4z6hPFvDyWFbKsWSlgLr4GQCAACNgDGWyZ4N6J2rSJODME0UFhIOydkfzQ8AAI0HDn9ZKX44X+3l9yIcWIoD43AQno4VThN8c4sD2Oxq5AxKj3RYlu+NXEIlVRgAAIBGBj9c1Bjna5HPjZxHiN8MAACNHg7ReTSVglr5WkTmUumq8C7RSQYAAEATYw0qxRFnX16TjLxo5B0jM6OTRvlm2HfRf8+ikr2F7SZ/p1JM7e5oRgBAvfNf8WkrY12mjfgAAAAASUVORK5CYII=;" vertex="1" parent="1">
          <mxGeometry x="221.7" y="585" width="60.3" height="30" as="geometry" />
        </mxCell>
        <mxCell id="r87C55WO3ufg_aptm7hn-15" value="" style="shape=image;verticalLabelPosition=bottom;labelBackgroundColor=default;verticalAlign=top;aspect=fixed;imageAspect=0;image=data:image/png,iVBORw0KGgoAAAANSUhEUgAAAVYAAAC1CAYAAAAECNcbAAAACXBIWXMAAA7EAAAOxAGVKw4bAAAbPUlEQVR42u2dd7xVRZLHiycgQUBFCcqIig7qGEkKOCJBMWBGHCPKmDCjK6PrOIABDJjWDAZ0xADGUdQFRERBBxnBgBkxDQiuIhIUQdiuz2127zue0+Gc7hPu+30/n/pHed3VXX3rdFd3VxMBH5wsZKqQV4Qcje4AAIBkDBKyrkzWCjkU3QIAAPF5O+BY18n/BgAAICafhjhWlt3QNQAAEI+JEY71UnQNAADE45IIx/oWugYAAOLxhwjHytIV3QMAAPF4I8KxPo6uAQCAePSLcKx89KobugcAAOypLWRehHOdL2RTdBEAANhzKEXHWl8W0gBdBAAA9jyjcK5ThDRFFwEAXFOHSrvo7akUe+xVYfJnKsVV1ynCArtjGAAAXNBUzuZWKZxOTZFlQg7EkAAAJGUMHGo1WSGkNYYFACAJH8KZ/kZOwbAAACThdTjS30gPDAsAQBL4KNIvcKb/J/dhSAAAXNBGyEAhtwr5u5BxFSRfGjrUBUKOw1AAAAA1xwtZrXGovwq5W0gTdBcAAKg5h9TnVtenD9wDXQUAAHoGaJzqWjlLrY+uAgAAPf3l8j7KqX4n5BB0EwAAmNFHyBqFU/1cyI7oJgAAMKOtkB8UTvVdIa3QTQAAYAbv6KtukE0X0hjdBAAA5oxWONW5hGTWAABgRUuKjqt+LWQrdBEAANjRMcKpLhWyC7oHAADs2VDIFyGOFddTAQAgAR2o9ALAOhkWuARdAgAAyeHXWHelUswVAAAAAAAAAAAAAAAAAAAAAAAAAAAAAAAAAAAAAAAAAAAAAAAAAAAA5nCmfk7l11tIXyHdqXSHvy66BgAAzNhAyH5CbhfyMUU/O71CyEtCThfSAN0GAADhM9OL6f/T9dkIP0F9nnTKAABQ4+El/flCFiscJ+dEXSDkSyG/KP7dG0K2RJcCAGoyHDt9J8JJ/izkPiG9hDQMhAr2EvJ3Ib+G/N1XhCdUAAA1EHaOwyj60b7nhLQyKIc3tFaE/P1CIVujmwEANYVmQiZHONRlQk6xLO+EiLLeF7IRuhsAUOlsR6Wd/jBH+L2QLjHLfSqizLvQ5QCASqYzlXbv10Us3ZPERXeNKJePavVC1wMAKpE95Iw0zPmtFNLJQR1vRpT/tpAqmAAAUEm0E7Ikwunxrv5hjuo5i6KPYZ0AMwAAKoXdFMt/lksd1rWTop7ZMAUAoBJoS+pD/y85XqJXKWbGLN1gEgBAkWkkZK7CybED3MpDvS8q6nwAZgEAFBWeOT5L6rv9f/JU90hFnUuF1IN5AABF5EqNU53gse5BmroPg3kAAEXjcIpO87c+1d+2Hus/WuNY74CJAABFgm9VLdM4tsGedeisqf9TmAkAUBQ4qcp0jVP7hPxn/d+G9LlbkVYQAFAILjFwaGnEN1sY6HEEzAUAyDt8x/9njTObkpIuTQwc63CYDACQZ3hpP1vjyHgzq31K+mxo4FifgtkAAHlmmIEjeyJFfWpR+KsC5TIHZgMA5JU2BiEAfiFgp5T1+kmj01KYDgCQV54xmK1mcY10jYFem8J8AIC80dvAea2Rs9o0qUNmz2V3gAkBAHmCndf7Bs7r8Qx0a2ToWI+CGQEAeeIiQ+fVOQPdmhnqNgBmBADkhaZCfjBwXDMy0m9rQ8d6LkwJAMgLww0dV9+M9OtsqN8lMCUAIC+z1R8NnBa/uFonIx37GjrWK2BOAEAeuNbQaV2doY7nG+o4EuYEAGQNbwotN3BYfH21TYZ6mjp/5GUFAGTODYYO66WM9XzIUM+bYVIAQJY0p1LmfxOHdULGuk4x1HMEzAoAyJKhhs6K7+g3zljXBYa6/hVmBQBkBacFXGjorMZlrOtmhnqyDIJpAQBZcZKFs8r6mmgPC13PgGkBAFnxpqGj4vOt9TPW9TwLx3oiTAsAyIKuFo5qfA70HW2hL969AgBkwngLR9U/B/r+00LfjjAvACBt+IjVakMnxU+hNMtY3yoyu8CwXlrCxACAtLnQwknNyIG+21vou0o6YgAASJU5Fo4qD2dCj7LQ9zOYFwCQNjtbOCmW3XKg8w0W+k6FiQEAeXZSX1HpyemsmWmh84MwMQAgTWqT+U0rlrtyoHNDIb9Y6Hw1zAwASJODLcMAh+ZA5x6WOh8LMwMA0mSMhYPi41iNc6DzEEvHuiPMDABIiw2EfGvhoF7Pid4TLXReKcMdAACQCvtYzvzyEKtkJ/mjhc4zYWYAQJpcb+lYe+ZA5w6WOo+GmQEAafKRhYPipNb1c6DzBZaO9RyYGQCQFjtYOqgpOdF7vKXe+8DUAIC0GGzpoPLytInNmdufczLLBgDUEGx21lnmCZmVsbxlqfM0mBkAkBZ1yC7lXlHlSpgaAJAWnWuAU2XpBVMDANLi0hrgVDmXQEOYGgCQFi9YOqklQr7PWJZa6jwDZgYApIXtzaWFOdHbJrE1y3CYGgCQFp0sHdS4nOh9l6XeXWFqAEBanG3poM7Lid7zLHReRKUEMwAAkAp3WzrWPXKg83aE/AAAgBzzhoWDWpqTmd9AS8faB2YGAKQFPwG9zMJBvZgTvZ+00JkvPtSDqQEAabE9FS8/AM+Yv7fQ+XGYGQCQJkdaOtZ9c6Cz7S2xE2FmAECaDLNwUGuEbJQDnW3et+IwQCOYGQCQJmMtnNQ7OdH5NQudH4CJAQBp84qFk7o/B/o2odLLsEV6OgYAUMP43MJJnZUDfY+30PcrwqUAAEDKsNP5xcJRdcqBzk8Qcq8CAHLMlmSXci/rs6ANyC4Zd1uYGACQNntZOKl/5UBfm6NheIIFAJAJR1s4qlE50PchC337wrwAgCw41cJRnZOxrnWplFzbRNfPqZRjFgAAUud8C8faI2NdD7bQ9UKYFgCQFTbvXLXIWNd7DfXklxCawLQAgKy4wtBZfZexnrys/9ZQ11tgVgBAlow0dFYzCxIG+FVIG5gVAJAldxg6rMcy1vNxQz0fhkkBAFljGre8NkMdNxOyiswyb+0AkwIAssb0ldOBGep4ASGLFQCgQNxi6LQOz0i/WkLmGujH2a62gzkBAHngWkPH2jUj/fYz1O8emBIAkBdMz7Fun5F+z5JZcphtYEoAQF4YYOhYN81At22pdHxKp9tNMCMAIE+Yng+tm4Futxno9Y2QjWFGAECe6GjgvNZSaRMpTfj67EoD3U6qEDs0FLIJ5eOhRlfUy0GbqqQOPvMI15V1VGXUxlqy/jop1/s7KoUINyjgmPR+5b2VgfP6KYMOuN5Ar+kZOPyktKTS0zJ3Uilf7AKKflJmkpAbhewvZMMct2kTufK5SsgEIR/Rb88d8xnjL4X8Q8jlQnbyqA//aAYLmSXrXa/DUiEvC7lIyBYxy2Y7HCHkv4TMlmWWT0D+TaXLLAM826w7ldJ4zgu0ket/hEp5i305ei57bmDVeGbOxmQjaSfenH9Bjr2fQ8bkZ0Kel2Oys0t/wgX9qHFgS1PuFL4QsIz0lwH2KIgz5S/6MdJRmsSMoxLL3ChnCXmAbcRpJF8iu4cdg4nT+zjWq7fiYxWcLFxnMZveTP5IF1u0b6GQfo7b107IPw3r5w/c3o7rH6Go7/KMx2R9IScLmUxmF4qi0o1eRo72lHSGWplyB5nkL7i9IE71UDnAVW3hL+n3cpa63ODfDspwps4vTowN+fpHnS1m5/Kd5oMyQc56k3J8iJNfo3GGb2lmr1Wyv1V5gL+TM6KfIv7/CEd9f3HER+wnOX6iJiCuLvecbjDZ2SmDMdlcyA2KPigXtuPXBmFGnkz+R9Lwyv2UnxjrlgaNni+kcc4d6kbSAYXpzzMqvphxmJDWIUu2evK/n0Cl87lfh5QxLuWYHjvUF0n/Iu7NcqnYMmQJzQ9RDhXyRcjfzk2wPGf2DMxSPpb9W1/+/21k6CVM74/l0jFsLE6J+Pf/SaWz3RsGVn/sWIaHONnTEq4q7wiZ7PCMe+eyf9eFwjPA8UftaAezQRPHdW+KY5I3ra/RTEY+kGNu7xCf0Ur+xqaQOvnUtkm+hLoOSyvGN4b02av2zblT5R/kuyG6/4+Qc2N8BWvL2VjQwY5MoS2bS5usVdhksnRippsY/OEYEjKLfZnibYRwf75TVs6bFL450TQQEy2XMYF/u1tIf8+SK5AqjS7HCnkjZFYb9/TKdYGyXlP82C+PaN8iSnZ65iDDpfTXKf3GjtKEfNhZdrMor6uMt0atSPby1WlpHGnalaoH4sNkZM6dags5owkzdNLlLsd9pgdWEnt5bMsxclCp4lFJrjr3Dynz9BjlDA58vJop/u0jivZ0KXOqPwSWuJcaOP3d5AwpqvwBMdp2RKCMp8tm4VEx5qj6L0lgqxMt4pStPc9SH9c49oNilt0k8Psql+Vxfmubkn5TJY3XA6ZodJhL2T+/rYJn9TNC9H7Ood7NAz/6sR7awbreSfoYd0MHdQUd3b9i6LrIwnmdo2jTo0K2DsyEOJZ8sIEevw/YxcW161aBDxv/6HXnyTso6p+VwE7tLBxrR0+/L96s/lRR75OUfNOJNyk/iSj/Wzk+rHhX01l/8OyUjiX9tdUOOZ+tDg/R+wtHs/0GVArQLw5Z4rmkacTHoXxDaoDD+rqE1GETa/1z2d/NM5hVHqNo2wohHwZmqqYv/U41cDhPW/bNZKoelzeZ3BygsV2SM6fjDR3rgR5+WxyCUe293Eju9hxUs/7pZPlIqS7L1UEeHVIjCt+gydMLsTraUPiO7VEOyuYjVu8r+qaRoza01ixlVztqT3CW/2vEklxHrcCE4FwHH/ByOcsihGVS3r2WjqT8b02PbZ2t0SHJBiGvDkxyd7g+QncyqY/0Xebh96z6UJ5tU1AvTWf5PACse8Xgfso/oyj89IKLWynTNP3j4hZJC80ya52cHfpgRcyP+D5lf7NKLuN0+Mjte7phmWcYlsdj5r2yv5uYILQSlK0chIkma+ro5HBs8JhbS+kfuzxZUSfH8Y1vE/Jupuo4xXBPDehC6vjudMr3rSOSs4Cwc523OShbF9tyccaYHfNsTT23eeq7jUPqahfjgzzB8G/uNnCAH5LdNdwLDcrkCy+bG5Z3YsyYZV35o1etOFzE+jcKhEyC4irT3FGk3syeQP6u026hcegX2BR2j6Kg8R6UZwN9rKiTD103L8Bs9UwXS4YI+mt+sBMTls/L6ac0dbxH/jYNe4f8+E3OKHOca5FlGICZRfpD7rabL50NHKvND3EmVT9NYsphGh1mObRbT0U9LjY1u5D6Espiiw9VXFS+aa5NQXsqClrgQfEHFfUtt5i5ZE2UY/qLg7IP1PxYjkxY/rmkvxyyt8e+ezhQ3yuGf9cj8HdtDT/kuuu3N8dsx2OK/rO5edWB4u9t6B7c/Itj2z0b4fCSwsflvtK0pV8Kv+tXyOGG/hxFQS6fPjmF1LuzPag4fBPRjnGOZvXzI8q/L2HZbUl/NfURj/22d0gYyPQHczVVP09rgm4fgZfRcTcCOZR2WZmt+CLCM1SKA9twK1VPbmK61N1EY0t28Fs5tl+/kHomOVhBTdLY6dmUfte6D9V5NoWpjqO42rzoRL/dsCi/97xfgZxqbYqOEa8mN8fUdpSDbZX8gXB8ayAlv2Y8gfS33Hb01G98iiLsZpPpUZbXyv7ubsO/GaJp7xWO2laVwKmUz9RudRCOWi+verAhHwEMHoFKeoFH1w4e/2klX9K9YP2I7aB4O6KgqQ6U3UYxw2PH0YeKxeaazuc4cXuHTryBo7J0IYY45y5N+WPIUo8/tDtY/KDL8wKY3v7S7WZ3zXgs7RDQxyYE87qmbad70jl4PO/EBGXxhtESTTueStEeT5M+O5sVqkPGuyRQtCVF7ybyTPVgKh4NSL17uH7mOoZKAfmqnOj9moFjdW0PPtLFx2PWhDjVnpY/wPWrBL6ZVN/gb+qR+oA561A3Y5u0C4Q3TMfK7zV25P0KX0mLgsv2XROU9aDBmOyUoj2ma3T5Nk6hYxzH3Nj4UUkOFpP5ofA88gmZHzpfLGM3vJHAceQmGehr8mrEInJzlIXL2JdK50LDHNtCOYON8/Hnpbvp/e3umvZOyslY6ivbZeOgrqLszoE/H5gcxU2z15b0eULeTtkW80ifwtMaDoZHbZoca1lWT4rOicmdtS0VmzEWjjUsjvmujBOeROm8NvuAgV5xN8Z43PAmESdG4c071blKnqGk9UjllZr2XlbQsVdL8TuNE1JIEgpIEiocZzAmz0m5X5cb/HZjx3zCshstJbP7wLyjfYdiqTzacBmXd7olcKxRsRt2TJt50LWOQRxrXdmsOkx4RsV5MPkaNJ995l3aOWSWXZ9zPjxKfrNyhTEjQ+fjkx6kv+zgK5dyVWAVMixmOVuS/hjcKnKTDN2U1gZjeUmSCrpEOFf21jdT+PlB3km+kaJTzvFu8KFUWUxw7FzXx8Z4l7WZQz27e9DT5DFKzpHKuUJbZWCbRtKhq26vbVjQcadbLV3qse7grcDuMcsZajCGXki5X01er/4saSV8NOY9xY+Gd3g50Pu6jJmp3hniRwIbU+XRgvSHmuPKYocfous9O9GVMrTBO6p8MJ5vA2V9e073I5lS0DHHN5x0b8Nt57H+i6j6ld24H6d5BuPq7JT79q8GOr3iyohDDQwZ9RAe7wZvRZUNn1n90uOsb6SDZd1LBnW9KJf6UTJchgQ45sVPW/SRS+ktcmqXGzTtHVLQ8abL1DXTc/3/KKvriZhl7Gg4/tP2Hc8b6HSrywp5ZvY3Kh3mXquZuXCC51MrdIYaxRakfxsqiVyTUD+TOGiPCrOJLsFM94K261FNuy7yWDcfTStP7B03R+9FBuPxk5T7lWPHJu97nebTifBRGb6tdT6VDiHz3XV+4Kw21WyON/hBx525xj1f2tyw/E0qyA661zH4yEwRN1CDji3Mjj6fSu9D1c9px90HeMJgTN6bct+avpbQhkBmcFINPsozMWYYJepV0TgfLpOEzPMqrP8P17R3WkHbpct7MN1z/eUvEP93gnI+NhiTJ6fct5cZ6PQ+XFt+qJIxJZ7N3iQH/08xnWucq797k9kxq0riJk17ryxou26l7OLGDQKThP4xy6lP+rf2kt72jIPJrcQRcGf5hs+VcrrGYaR+fiXsDLAtJkdIrqiw/n1L095eBW2X7lLAHz3W/SeqvpcS9/bg7wzG4ypK96oxX7vX3QDjMMv2cF3FgXf8OfHzOwYDbo6HZTHLKRXUn000PxI+29qwgO1qRfrzzz6dUfnJkjEJytnZYDymfY11kIFOk+Cqign/KEaR/i6/Lb0NBk23CurHPpq2zihou3QvBbzose72gbqS3KDb02A8Pply38400Kk3XJRbeMOIM7rz4eGRcklUx1NdHI99RmHcHzwN5J0ryF66yxBFjZMNpXRfCihnbMJVUzkmm6k3pdivJqcBXiXgFM4EH3ZDZL5HZ8QbXVHB/Q9jxo90A6dVBdlMN/s4oKDt0mW27+mpXj6kX36n/6SE5Zncxx+cYr/q0hZybLULAWfsT+pnL/hhMV+JLqLirc/FnAUv1QyezSvEZo1IndhjNcV/hiVrpmhs6OsG3I1U/Vhe0rPq/Pe/aNpyVkp9yolgVml0GQVX6PYH+m/K7khI1AHqQTHLe1nTjtYVYjfdCwkzCtw21UuzKzzOVsszWbm6dTSXMrrdFOAejR78mOrGcIfuOI3Mjj/t46n+8eQ2FjpU047dM+7vQ6iU/YyTuCS5EXWNpp1XFXhMqm70feWpzofK6viU3J06GK2x0/kp9CdPilSnR36Vq1bgkGcMHauv2OQHIXW9maA83esB/TLs656BkMsJCcrSvQHVs8Bj8lVK90YQTxrK84Ic5rDsfpTtBuMGmv5k+RvcoHtMzpS+5fFLGpbo5pgEZXIs+CNFW4Zl1M98bGdZYEkb96578LHBsEPnDQo8JlWbV/Md11U/MF4mOi6fzxGrMvX7vgmoW8Hx44VVBJyji68mSYqiYwyF3+VP+haVKqNQFrHH/em3eRSSvPa5n8ZmUws+JoeROkWnS8qvBPP1ax/Pod+haM/XHvvxAE0IYBpVxgsnueRDTezlYk/17hwx63KR8JpnCYsVbWqZYv8ODGnn0IRl6h7XG1LwMam76LGlo3oOD6yYzvXUnu00K4wOHupsT+qkSPw8EjarPBK2ecRfbt5c8fVOEju+sLwBDzqs40zFoBqeQr/yoB1Lfg63T6NsNhrTgjP1q47NHeegjt3l7Lf8aZRaHtukuszxoOO6+CLAIlK/KFGTckhnwnEhsymfMRde5j8WYux3yO299iqFA+IveQtP7eMfZ9+QEAvHVPs7cjqqjGErqLjvW5WjehUhaRx0h4Dj4bedfD+vw2P7A8Uqqr2jenoFPhhB4eTh9eD2/MNXVsuD93yg2VdMlc/MPkXh+Vd9LM/ZeS6g6Kt7rhN58KB+k8Jvke3qqI7OmtnqxAoZlzweVImu941ZbqfAmODny9um1KZdFDNxnlgkScDOExZ+zDLq0gj/9ws9z8pByLJoBVXfsLqe3N7c4XjWJxR+tMrnW1IdFT9QPruYNHjPfcRXH8Oul/JH6ibHM/GLKT9XJH1ziqKd/KinzWUPdigDArN93q1P+wonPwu0kqI3VpvGHOPTSZ04vivcXDYcGbLE5Oe9r6b4t6544POVvTkRBr+P0jkWxLOUbyJ0eDfGMoxnwkfLZVXUj+RZTzMh3VMfHSpsXF5L6gxohxiU0SEkLMS78Xtk1KYucqYc1iYep8eS/mQMfyg4U9t4in6bjz/sIwg7/5nTTsabwoz0uXQk/I77MfLLyw5pezlAO0tnc6F0mJ9pvqBpJwjhK4uqzOnT5GxvPzmD30k6ZF7ecxyaD1GPJf1TG5PJ7+F8Vb9+WqFLvcGkzoswW9rnQDkWWfiQPz9B8nYGqyQT+MKN6vo13zDjOHM/OQ75hWTelORjendGrP7KY7YPE5JV54qNqLRzbfLaqa28L5d3WT3EWCVn0Asdt4tnTrdQOk9sqG7RDKzgcdlRfrSS2IlDQhdQfh4C5Y8g376b72gc8qbsKEr/qRdg6WA5dsiJeFfENDQvUd4TcrP8YeQFDj+cIWNaa2O0a7WcJV0nZ6d1UtSd8+WGHfp+mmrGDRo+AviIkCUW9loix2DznLaptlwFTiB9BqowZ8obwhw/bgS3VSzqS8fIxuME2OOolMWdA+aciYg3biZJA99OpcxUfLKgWQHa1lwOaj7bytcLp8o2zZLhAW4XnzO8SjrjzpT9ddFOMizB/c7pFU+l5LfVigY7o25yBnpnYDy+QaUcGCNkyKlIx4saS5052fwDcpa+fjxOlR/Q2+VY5Fit16N1/wvvN4eyuLeiDgAAAABJRU5ErkJggg==;" vertex="1" parent="1">
          <mxGeometry x="223.51" y="320" width="56.69" height="30" as="geometry" />
        </mxCell>
        <mxCell id="r87C55WO3ufg_aptm7hn-16" value="" style="shape=image;verticalLabelPosition=bottom;labelBackgroundColor=default;verticalAlign=top;aspect=fixed;imageAspect=0;image=data:image/png,iVBORw0KGgoAAAANSUhEUgAAARwAAABnCAYAAADSZv1WAAAACXBIWXMAAA7EAAAOxAGVKw4bAAAWDElEQVR42u1dC9RXUxbfFaVUymuKohlSyiNCJhmVPHogKRrPpgfJIzIYEakokzwqeTNeMSpJNaEpw4TRKKMUUehd0tc0mYmec7bvfGvd7ve/9/7OfZxz7tf5rbWXtfL97/3dfc7Z55x99tmbKDmOFDJYyEwhy4QUCVkp5BMh44X0EXIY6UMdIRcK+aOQCZLH15JXiXwjZJaQl4TcLKSFkAqkH+WFNBbSQ8gTQt4W8rHkV+TR5adC3hAyTEgnIfuSA6OykJayj42S+psjZImQtR4drpD9YLKQ4UIuFXLIbqqzfYScKeRO2ac+ErLY09fmyn+/UcgRNhH/pZCJQnaC8qYc2FmgoTR6CxT4+OV7IY8JOUaDkWkt5Dkh/47JdascXJ2F7LGbDZhaQvoJeUvI/xK0907ZXwYIqbsbGOYu0uBuVdTRh0LOMf0B7RIMlrFCqqXEo71cWe1I2PG8ws96VcihKetsbyH9hXybIleWL2R7lHW0kO2yJWX97ZTPfFqujssS6gl5PAXDzDJNyIEmPuJ8Idt8ZJYKGSQt4elCugmZEjFIkizXmkrLG/T81ULGyVUPL587yFUFG6juQh4V8l2EgtmgXpSCvngF0ltyCurss+WW4FohFwtpK/V4sTRSs4EOwVuyvcqgoWksZ+awb18nZJKQ+2T7XiCkjWzzM+XsfqNs91khs/wmuT0rC4bmqQjjvF3qYqCQK6SeuN9dLmS03Gb5f7NKSPOId3Mf7CvkPblFWyx3DgfH+ZBmQjb7VgP3CKkY8Pd9Qj6Y/RS1Fd+/l/RjFOowS6TyGisYglt931NotfP7BA1/gpCFBZ67WRrE8xSMRDNgy/iOkOplxNBw+9wdYhzWSgNzvNymqqC6nDinyoHnf/ZLIX3aZuwp5A8RK5oNQm4HDEB5uXKeX8AonxrwG/aLfR6yCFDaNVQV8pXvIchgDJud5ioMuKZyZeR/Bju9OsbodCVgp+OPEQO5Vww/za0FZpj/yFVXXKdvlYiVHct02fHyjDoh3/mdnEErpfSu+tJJ6n/PGznzj/GENC/C7zdCyH4xjNiIAkbnqAJ983PAnQLjId+Ph4O/6xBBoj/wDHaO/tf3u5Vyy1Euhca6KoIjG6TjwGexMZlRYPk6OkZjF8IBwHZwaI6NDXfkZQHf9VpKOiyECwv0sRE50Bf3/34RzmA+pftNwvfc5Hvml1R84lWCwcC2f73KLOCdrT9TmEWrRTh12VoeFPL72wv8/hUhNVJstArym8KU9R44M/u3PYso/dO5GyK4so+tSQ6NzbFyyV9oaztAw/ub+96/TW6LbQVvDcdH9IWZcpJKAyN9z37S4+ooAgzORvRFL/saX9Varo4gcm/A7+4tsCzsnVHj9QYUdnbI7zkeaWmBGblaBlyrUPTJw9QcOjpXBnzL7zXyuMD37o8t1VfdAP+gVyZRugcJleXKxmsLeDJtS9hJFzJp/xxv412uTYxBNGr1sLjAb+4osBI6M8MGPIiij9ffD/jtEQW2OXentN0LwiSKPt5vkBNjw4PiUwo+fdONF30cTrJMXw1Dtp0l8nJGvrwWtKujnU+6hoAG5z7kBQ/6ftQ8Bsk5AJkTQlYbvFw7WUNDLgEGsX/7V8v3O/6b6zVwvQXQ6ZCcGJxHA/gvlLOqbhzn4/GgRbricbIO2EZleXDgn+yWgwanPTLzrPf84O8xCX4NkLlG/m0rn7/oe43+iMkAz14+/9Rc3//vrYnrOQDXf+XA2LQO4d9GM5f95fagp88nYYsej/KNx6Ddwv4Z8ziV1AMH2R8W6Xe9yPejS2MS/AEgxLPIIdLAeONVWmhs0DEAz1fl35YrYOkHauTaBOC6PSMfUlrgWTgotugfmv1HHBf1UwCXIst9XN6wi/qa+HyiaHAgX5h3xmejsXcMYtUID52e5RssnTU36h8BnnPl3/pPil7QzPVwUK/NLDY43UN4X6aJQwvCTlhMRnHzKdMigGMPjZz6KxqcyBCDqrRrFG7cAXUS4XeYTPsfBgE8+cpDU99suDCmMU6CuqBeO1hqbCpQ4fD5ksmtkgYOvPVYDejwJ8r2ACAMHHz4LsDxdc28GikanHOjHtjF94PzYhLrGWO/91cyky7iPpCf9/ibj6ePNsD1GJBrN0sNTvsQzm9p4jAM1OEKg3oaAfDj2CHdFyvZAK8D9ce7lZpRD3zJZ+Hj+gIeJvU0EbUNNe4zMYzjlYa4tgL53WSpwQkLWLtbE4eloA5fM6SjLoRlQrjREL9poP7mRj2oIu2afmJmAlLvKQ7grgYHwTRFrlMMcu0McrzGQmPD24SNho14DYV27mFAR/Wo2AkcxW0RmbtoOh7UX2RYQRvfD26JSYhPIf6r0LBvGB4IixW4sn/rMINcbwR5XmihwWlO6V6WjYNKVPimeKHts26HMW9X3gbbt6PBdvwmLY5DfT+I66M4UWEA8wXJ+gaVVwXsgCUyyPCgRbd/LS00OAMiON+liccMis6seLYB/fQA25ZXN+UNtWEtBf9N5IXbj3wOs7ge+usVBvBgw4PgeAWuy6WBMonZINfGFhqcqGsZupzGrJugQLpNhrb3HMm+AWzbaw22YReQ46fI3tab0e/pBKReBkkts2AAd1cwOKb9IjyrIcGUW8jORFKzAd668gxzsClfrSgJOOWsdmOkD8XmlSv7WKsabMNRIM+RUQ/yh8x3SUBqKeXHsfkUyHUVmU/l2QDkauvVhmUA93GkP/alkmG9HE2l0/cGyZOGuc4HeXaKetBA3x62ZkxCB4OE+Cy/sgWDYCHIt78FXNHV2J8sNThrQP530O4FlVNSk765fQnzd/KRfmR80PMp7aXRY9tXLGjofQmv/GBDPaNnQa43WDqwFikMrOct2G7rwGkKOllK5pzFjI4gz/nIw/hGKt8K5/yoSe7hPASSutqCxm5P+KmADVgC8j3F0sE1g9Tinfh7u1H+czWHYYqCPoYZ5voAyHO0TlLzQFJHWtDYQ0Guj1vAFd2q/mDxAL2f1CO6SxKosxOSE7HtXYaMzRGkFpJxomG+c0Ce2i5fHwhuUfjiXDkLGnwWqMDfWsD1EpDrmxYPsA4xDY7/JIszMHIaWr7nVzvHBucxhe9eYXjMcOJ0xLHN4/8Xukh1zZH/hh3WP4F8D7KA7wsg11ssHmB8VF+UgtEpFB/F9eS5RA9HM1fIgbHhMBSVaPxHDPNtB/JcoJPUEzny37QGuX5uAVd2FK7NybI7CoMzMDiFEmdxwjQ+1atlqR56KH7TGYb5ohkVxugkhd5JssF/cxfI9TELuDYl/Ma97bM7h1us0WB0vCkuOWdMK8v08LbCN2wi84GcH4JcL9JF6BCQ0FpL/DczbFNgCO4Aub5A+cC5hIcjpCkc7lHfgu9nX+dWBd6TDfOtSuH1yo24H36XI/9NRXD/vMOSJTk6u3Sl/KC/AYNTcorXw/C391Hk3Ncw3zNAnl/Y6NS0wX/THOS60AKuB4Orga2UblVSXSu3HYYMz30GV9qvKXI17YJA609pdT+syJH/5jYbHWABQG/ez6R8gitebjBkdEwE0qmk6Cw5gTMNNJmetvCRhiAhW+JvpubIf/M3yvd1BgS15Oy41YDR0X2B+GhFfi8abhu+sLzZNv/NNTny3/Apzr/JsgCmAPD7kWCr7XLrlXfw6vdZUotPSSoci3W8xm+8RpFfb8Nt0hLk+aVOUhNy5L9Bj5gXWMC1N8j1XSpb4KjWK+VK9H8ajA63ta7rIE8pcjOdSA0NH9FWC768wp7UBv8NmhP4EQu4Tge59qGyi8pylmUH80TCcurEEV2T4d8VOK0ns7fDGWj4yCW6CKEpOm2Jv0FPCLoY5rkf6NPYZsHWTzc4jqVtykZoOekJmlxL+Ym/QcNHWOroInVzjvw35cAGt8F/g8Y1TScHkj4svkv1RQKj0y5jjjUU+dxpWKengDwX6yT1lxz5bxrnyH8zGeTay9maUpMKp0f4MobByToM4lhFPuca1iUaPvK0LkLsaNuUI//N1Tnx33AmQuQm+xYCSnHspqgi21FlgGedC/pURT51DOvwTZDnZboInZwz/804kG9nwzyvAnn+xdmVSNxAeDTzDxlzaadgbNYZ1htXSf0PyPVQ578pDfQ0DUoAnTHQyM5uzp5AuFNhoGd5PH6RAo8ZhnWGFrP8RicpNB+rDf6b40Cu8w3zPASckTn6s4azJRD49Am9AFs9Qx4qNdBMp7W9CeT5rM5GRO/A2FAFsh/IdVROHHVjU/Bx8DPmpLxSKi+NJgdY1rXI6KABn1mWLrpcweDcbFhfb9i2ykZXDOsoX/enTPtvPgN5Jq19fa3nWWtS4M3H0iOpdHKtFdKI7mFBH/gnsGrMEl0UDM75ht0P60Ge9XSR6gsSes2CjrYn6ADjrcwBBnk2AXW6ipIHqXkjXj9I+Cy+8R11WjmJzEfNDorg+FnG72+rYHCOy0E/XKqTFHp/qq8FBgfNfzPPMM/hIM/hCd/DTnHvpdB7EjyrM+GnQKYThF0Ywe9VSway6cKL6GLiOV2EeIv0XQ4sdQnQFJ0jDXLk2X85yPOohO/yH7vHLZz3Syo+SkYH0UTD/aAVmU3xUVNBVzUN6ul1kGN3XYTQiN0NFiyjGTNBvp0McmwJcpyTwru8l0LXJ9iePUNqgWymV5BRW5pjNHBADlp2GBw3lQgP5j1MFyk0YneyBcamMmEJhLiR9zfI83FQp0lnYf5G76XQuMevfHy8RdHgzDbcF3qS+ftAyOS3ncwdtFxG+GVXbXiZ8nG0hyyjS+RTgxzZqf09aBSThrv3Smk7dR6p31V61nBfCKt7f68mDmh9p2oG9MOhEl+B/LRWCFkJkjrJAoMzEOT6sEGO54Ac30/hXR95nvdVgpn0nhgG5xzDfSHoJjk70HWF56PXG0zEMD2t0JbaLg3XBwnxPtCG2As0gZDJuIcxIMd+Cd/jD1e/I8GznlQ0NnMM+/N+FcJtgkYenCMYcbQfpVk/fRXb8wgb9sFeedMCY8NbFbT+lEn/zVyQY9JZ+HnP81gvSWKOVEqd8ABrYrgvDArxlxytmQtyiVjnBNiWsNzZJbJSp7LQ+lP9LTA4vyY70hJEAZnxkp7wcEKxH1PcQo4FdbtRdmiT4MqRQYnXTFRFOAvQ22BNXDhtjGqZnrE6lbUUJHWKBQbnDyDXBw1yrER6kkONol3z6CRdLT0MrMj4Pk4DC/rBgACORUJqG+BTnqKds1M18OBv/yaGL+4qG/bBO33L9YoWdDT0/lRHgxz3ouyTHNWnXY+w0zgt6kal63Y/Lg1bT517fODbgyo//M4gr6iLnLwyrJKxsfk8hrFhaahLSej1+rct6Gho/Snew+9rmOtGgGejBM8fT7teUEwjYMufRmMK2Qee9D6wYVsQ0D/nRbT5pRm9mwvW+U/s1oBjW2sxy+dAUrdZ0NnQahKfWMB1EcAzbu6b9j7DMCRF3u/5tlCnWmZwnqDgmKu9LeDHGTPDnLXvZPBOPv1a4nvPnyk8Rsn/t9rwLUiqmQWNidafetACrlFXBOKmTeASul5n6ZKUB5r/qgAbzuqWGJv7A3T5NdmVp2eoxu0+B2v6sya8IFdbH4HjRVsyvTqEn0rYEH8zEeTbwQKuXSn9MHJ2THqTYPNM2iID7lMK+HL2MryNCqpuyQce9SxbhfFgnxbS9lxza5+E7+BJ5mHpPvAnm+N+wlHNaF33RroU05Hyc3+KlYhcFdhCZkLI/eBVQVEIzyLF5/Ee2x+YNyQj7uwPWEWlSw+biGs6PMRn84llKxsv2KDMDmn/DxL00zOp+J6Y93kcHtHT8zdngWNbazGEISCp6yxowAYg11kWdbqBFO7Yrq5gbB4lvcmv2F/md9CzEdIVvMYXdDkEIug0aoIlPpsooxNWBni2wuqC+8DpVDgZ/wLZXl6g11TG6VQIWqPGhuNQNDv+AIs6XE0KL1mL7OV/QaUL6HFHraqBP0cSry7Am1c7nPZjz4x01i/gvTulEexBdqS4RbeDYyJW5KOpOKFcuQJGl532d1Npp/BOuWV6gArnbEbrnV+rUxnIFmWJJQ03DFRgA8s63MkUnPJhLgUn+GY/wKVUOpr2/RT2/ypgJ/V0Ck6Lyjel21Cy+BLOnXwJFV+t+JGCgw7Hy7/NI/hk8VuKjnX7Qm4Vl1F4qhCORzsyZHX4EzhetN3vKgeSesCSBhsNcJ1paWfrGjKQ2OhwAOAp0jhxes8RVDj6e7ymlU2hvsIcwzIKcF/6BxWfzvFW6Aq5/eJtAFdXOEkapo7S1zBMfg+SOmGKfEbewYaAL1SuoHjBeWyAXqHoiH80fYv2YghvUXRBc1uORDtFcN1Gdly9CMJvKPjuD3JRsrcF38AnVX2ELIz5HSqyVk52x1DZA69e20rjHLXq2SQNLhuqg8Dn3wXqeILuDz+WglMPcqdqaFEjlQ8xkNvJjsTuiBORZ/bNYIfgv3tI+nFsA1+ivZ+C89GoCrchX7jlGKp2lG21TNtwoJyQuOQM56Th6P/zpLGNowc0/e71Jj62kdw7b5DG52PptKtqYcPwpciBcuW1RS7x+bSmZc46GEcY/1bIS3KQrZIOwNVy//6i3IblpQonO3pbU3FgJkeuvyu/iy8RFnn8E+ukT5D/Hx9YjJJOSz7C3Z8c0kBFwtK36Mr37ODgUIbRAjQ268mOYggODg45Rn/Q4Ex0qnJwcEgKNLbuBqcqBweHJGD/DVp/qolTl4ODQxKcBhobjtau4NTl4OCQBINAgzPJqcrBwSEpPiA9pYkcHBx2c3CqC7RMc1OnLgcHhyRAyzQ7/42Dg0NioCV9XfyNg4NDInD633Wgwenu1OXg4JAEbQnPOrCPU5eDg0MSTAANzpNOVQ4O+QKfBnGSNE77yalDbiWzUbtc3hk5neJsBIe55nNwyAc4+RgH1gVdHXiVzFQLeQJc3TzmmtDBIR/gBFlIUTlOEKczZWcjcHXDucv3c83o4GA/KhNewZLlXE28OJfN+yCni10zOjjkA3eSWqrUZzTxuhXk87xrQgeHfIAL7aHpHkpkmgZeXHlzG8BlLtlfLNDBwUHifFJPBj8mY06ch7gI4MH5vuu4JnRwyA/QUtheuTxDPlwBdw3AgZPxN3TN5+CQL6D3k7yF5bKqdsIVMpeDK5tGrukcHPKHpxQNTp+MeLSk4jJOUe+fL6SuazYHh3zidgVjM5bSj8Hh511FwWWivTKO3D0pB4dc40RgoO+gYkdx2jlmaguZStiFzCtdUzk4lA0Elc3l0sTThbRK+X28SuF7WhsJy018qGsiB4eyg3pU+GSIyxgPFXKGkCopvKeZkNGE+Wo4vqadaxoHh7KJ+lRcDz3IAHAQHte7nyzkASG3Cekp5AIhbTzSUv63k5BuVHwZ9HUh3xHmJ+KrDJxKtJxrEgeHsg320bCvZBWpx+YkkbVCRlLxsbiDg8NuaHhaC3lUyNcZGJjNQj4Uco+Qk6n4kqaDg4PDz6ght0rXCRlOxZclub73PCFLpHB6iCIp38t/WyBklpAXqTiiuZeQE4TsmZcP/z/RQk1LK5rmuwAAAABJRU5ErkJggg==;" vertex="1" parent="1">
          <mxGeometry x="1067" y="145.67" width="34" height="12.36" as="geometry" />
        </mxCell>
        <mxCell id="r87C55WO3ufg_aptm7hn-21" value="" style="shape=image;verticalLabelPosition=bottom;labelBackgroundColor=default;verticalAlign=top;aspect=fixed;imageAspect=0;image=data:image/png,iVBORw0KGgoAAAANSUhEUgAAAHYAAABtCAYAAAB0tpVJAAAACXBIWXMAAA7EAAAOxAGVKw4bAAAH50lEQVR42u1dZ4yVVRAdgd2lKEUExQZ2bBgbsLRdBVaKUWyoqFEgItEfKkSREoqAlIRgQQQCGsWoQVCKLr0viBQboGKyKiIqoivggi4L6Eze3YhG9J2h7J15O8n5t8l+5zvvu3Pv3LnnEsUTDRgjGNMZ8x1iGmMKYyJjEKM7oz2jHjmO6owdjD9SFMJ9CWMAoxmjghdhc1JY1H/DdsbYILLpaFcm5iHxAeMuq19xBmM4YzUjP+DHYzA872cUMH446P8eSXzL2HmEnvVTRltvObgiowajPuMmxhjGLuULWhFeUNVjzKEOoxWjB2Mm4zfl87/FOMnzhOtCRjH4UvLC6BBDVGHcw1ivEHcrI8uzuJvAF5IZIYfjGJ3ChAnhUhRyr8vYDLyIzZFzOZmxCBT3AKOrN1GPZ+wDXsJYI5PIaaC4+8K8w01kgy/AyowyjbEY5FbIuMCLsI+D+aiyIW4yLP8MirvWS8XqXXA2bC26KGbLD1oXtQK48B9qkGN5xuegsD8xTrAsbEOQcI5Rng8ovtqHUiW/7g3FAItRjfE7KOwGy8LmAkRXGk87yxRf7XlW8ytSJx5mXNgnFcI+bJFoI5BkG+PCtlcI+4pFor0AgsXWZ4kcFyuEXWeR6GyA4CoH6/XqCmG/955fRzgQtpJC2N3WSDYGCbZzIGwthbBF1kj2JmzXo5oDYc9PhaF4DkBuNfmIVgphP/OcX0c6EbanQtjplghmguSudyLsZIWw/cvya9xRjhKtsaiw11kiOZewTWcPcbVC1F8Y6VYISrtIIUBulBNhRymEnWSJYBOQ3A0ORJXGtu0KYZtaItmHsGMbNRwIe7dC1OXWSM4DyH3oQFRZ2m1SCGtqJwvNr6MdCNvV+9qVQs5ACHYwLqrs5nxHeNG/rjWifQk78lDTuLATFF+ryWMeSH792LiorcOPExF1skWi6WGYSZbks4ZFPYMSh70RUWWjw2QHJppfbza8Zl0FcpVm8lpWf8VofrV40luWNm+DouZbnCwdHAsAsusN8pNDzxMJ96I4zbKoaH4dY5Dfq6CoSxgnWl+kNwdJ32qImxzang3yGx+KNeajH5hfaxvhdRlhp+jknGxHchRIft1oJJ/K+VXEBkjOANfxJKpM//eQH3+JS0J+TJbPFsYd5DDQ/Hp7pDzEcuBpSt6PSjY7BpPdY5//G/1BYU+N7PnPZDwDzOoLw9+fQs5jIdnroZWvTAy1coEvVLynepNzCz1tfh1XSs9ZLsxwH2HMYPya5PPK5Em8nGR7sTylULQAh2Exb77yKCGbEv3JksO7hf/1GmMNYeYmO4OYnSmx35qSgebXWI2kZ4W1eJaXwsLhxiIHwopPsTSWSSuouLjIKcEKqSxqRXABL7PJglLAHoXYMhxLX9J95OOUAhRZ4Mu6vBSfNS3MZsU3+TZKmJhIEWJ/khMoydWNUkXYAYCoBWFmGltICVBcW75KkofY/TTzLizi+jkjci7pIb8ma3Y5NcJCS6nk1x5GeEkVagUlf6DKnWt4NphfrzDELY0wg+mxnpZIAwk7KmitaiNCzQQ4SmmysgdhlwCkZxnlKMucLwCesqbPsCwqml97GubaKMklUQlep8Qmvcm4BsyvVxkfnV6kFDC9lBgEVnCs74qcRdgNJDKaXWSR6FLC+oA8xFTwq51rjaB4BSIu2o85EfZGwuvNrS0RvBYk19CJsBmEX1z4jiWCiIO2OLN52v5aDgq7P1SyTATieZ9LvmK4Yjg2cbcOml97ORO2o0JYE8WZliApb/uXmaTrzog+BgOEpAvQW+9QXdK13kTfEIdMHuaQv6itFDbqYkVlML/2diis9ottHDMp1Dm7iUNhGyiFbREzqSGEdSN67M3NUgp7acyk8shxnTTJ6KYUNtozs5JfiwAifZ0KO1ohqry3aI2m0fza1KmwmlMPa2ImNJQwA8h0h6Kiq4ISPO8lvy5w+rW2VebXTrESqgLm135OhX1BIaqcGYr2ds0ckExzh6JK816BQtipXvKr/EIzHAp7p3IYjtpkeyVAZKHTYThPIaqYfpWLlRC6fu3vUNQ2yq+1S8yk0Pya5UxUafx+TyFqfuxLvqcI66Wt6EzYe5Vfa/QXMCK/1sXORJVLnrYpRI3+2hWxct0LEBroTNiXFaLKqcLoncTRSUO2I1E7K4dgE0aZwwBCUkOt5ERUcT7drRDVjGM6kl+XOhFVvPu/Voi6zMrEEc2vgxyIKoecP1KIuoEM3aaJ5teWxkUV/6f3FaJ+wzjdElHkKEMR2fZeEEufTxSiii/UudbIIrdALTcsqrSFblGIupEM3qUjuaYYIDnEoKBSKnwUnEeUII+MGlF3IMeHeylhO5CrXKfKJYtm22qRiktxmEFbCCnKP6Fco0qfdCcyHHJd1y6A8DoDnGTjv7tyfVri3XSO9bXceJD0GxFzkftd+ygnRyVuN93JsGeTRFXGcwry4yLjIfnzfsZ8wky3/plexpNBZ1PxhJAjB2JaKcVuuTZzh/IlyIZyZimU06QufTYlWkLFVXVSeJbDsY+X+/bEGLN+rMLJJu+bYa2VH7CV/rJRP3CYL+BQ2HbQ/zsa+DI8f/ERfm5pwJtAieJ/1FP54qMknDdsCLPkmhaG2Y5lgv0npHQoDXfm7PByysT7Ww17LSUuIbyFjN9DlxaGlylhZugZ8wLPlyixyT00LE/kZGA9MmbM+ScSU3xWgOXCxQAAAABJRU5ErkJggg==;" vertex="1" parent="1">
          <mxGeometry x="683" y="205" width="15" height="13.88" as="geometry" />
        </mxCell>
        <mxCell id="r87C55WO3ufg_aptm7hn-22" value="" style="shape=image;verticalLabelPosition=bottom;labelBackgroundColor=default;verticalAlign=top;aspect=fixed;imageAspect=0;image=data:image/png,iVBORw0KGgoAAAANSUhEUgAAAE0AAABICAYAAACzxHgDAAAACXBIWXMAAA7EAAAOxAGVKw4bAAAGI0lEQVR42u1ca2wVRRQ+FQUExQdFkQRFQUTQxleoJJIGER9Y0RRjUEExSFJ8FsSgqShKrCRFjUrqC0mpKDYiPiKC+kMxETAaE7CKksYaK4IlgEUFFFDPSY/Jdt3dOWf3zs6uOMn3696d+e53Z745M2dmAbJbTkZMRMxHNCBWINYh3kHUIx5CjER0gYO4FLEICxE/Iv4SYhuiFlF8MIl1JOJeRLNCqCC0I6pY/P9s6YGYyT0lSozvEYsQcxCVLMw8xEeI3wO+vxzRy9D2YYhJiMWI1fzMdVkXvAKxOUKofTxMSw0/5HgW81ff82u5BweVQYiNIe0uRRySNbGOQzQaehb966fFmDQ+8dXzAfcobyHfazW0f22WBLvUMBSpt0xOUP/hiJW+Omt931ki8MbGrMyKsxD7I4h+gxhagLZ6Ij731PsnYhR/NhhxQCDa61kwe9Nw3MDeVKhypm+CaOJhOlc4C891HUp8aCD4GaK3hbYf8LUzBbFGKNpVrgQ7mmewKHLfWgxIuyG2etpqDglP/KDh3MeFYMf4fCUIuxBnWOYxO0aAvNGFYN14qo8iRmZ8ZQpcioW9y4vnXcySLwuIPZkip1VK0SanLVqNgFQzhwVplWlK0U5JU7ByNlHTsCxL+Y88XSFYa5rEBiB2ZNEveB3ZLhRtSVqkuvLGoInQb4h+jsKfL4WiTU2LkDTKrnEkGK1H9wo5Dk6D0BAhoR0cu7koFwoF25KWV3wsJDTb4VLuQSHHV9IgUykk8wfiBIeirRbynGabyBGIn4RkXnUoWHfEHiHPobbJ3K+IfS5zKJrUz9rAcm6gWBH3bIN/bzdn0c+W2SZSq+hlz4DbIvWzO2xvKv6sEK0sJ35WYpPIbQrByCe65MDPtoPFlF0RhOcKg7DI8dCU+tkbNkmMUW6xVOTEz2bYJLFYIdheCM9uZ83PzrVFgrawdypEW+W4l0n9rN2m745TDs0ZOfGzFTZJNChFK8mJn82ySUJzwG4ruD2upPGzUpt7Zppe9mJO/OwXm0u8qUrRpuTEz97Nkp8NyYmfVdskoVkFtDn2M00+YIQtEhTDaNL6y3PiZ7ts+tlA5dC8Kyd+9pZNEmOVoo38f/8M4FaFYHQkoVdO/GyYTSLVCtE25cTPrAff8xSiNebEz6wH3wsUolXnxM9usk2kXiHaNTnxsxMThF8U6LeYFvoa0c5xKNqoFHx3rC/OCy1PK0Q7Kgd+Vpegjeeg8zH+0PIoyJPCefCzqxO00QLCfO7dQjJf5WT/rG+BtscmRH15gpDMWoeiXSTk2JKgjTt9QXzkKahSyH4i5Qkhx6UJ2lipGVV0GWw/ZPfW2qEQfdG2EOtNCmd2e+pZIHmoyfUuaES5XjG7D4/ZxiUQ4+hYnYDQGgeC0eZAq1Awmii6xmznMeicV+gueegKAakmB6JpMv5JJqpNnnpekz7UkxU23RFI87L8JOU+X0PMdoZDgntTLwiIDUxJsBGKuOwfzInZ1uPQ+e0NfbRETcTSuIpIQWabp83dYL6PRbg9RluUQ9gCCY9kme5w1lkWrD/iO097FAqNB1m2LE4udqKvjvI4pMsMxDZb9LVBvrUf9a5K/myhQLQbY7T5qef5HzgmjFVMF2DHWBCsxDdMCFWez8sFot2ibHO07/mHk/yAvhD9MpJCx2sVvHfl7WHTA7zHtCrQnA6iHvWFzzf7J/0hF0P0C0EKsYNLQtT4TJ6S1jeEfH8mFO6e6XSwdHuwCqKz10lSZOch1vvq3MlDJqzQSc2vIfoKuCQDdRbHnN6dkYIeg70vgiTNctqzrAMQz3I85K2LDFlyr3yYIQgfZ3j+VDZ861fHb4aOW3ZBJGk4UYaqt2EY0uRRH1DPAV73adaM4wNE9+Y7zw54pogtZTukeAT2fOh4uVLUSW/aOqIcKl3eoCuCtKe/DMIPP6/jYRrXc8Nu1ezj9eM9HLKQX20I+N4jaSxtevBwlV40C8N6Xlcmjffo3WvvxWh/T4zwJHE5lmefJgXRdu51oy3wuZx3lU0bqWQFb0JKd9ijyknQkc2ez4RoGUapr/eh41UOdEX7giSRtqL04x78FOJtjieJz0u8o6t+gcnfVpA4YCHZcE4AAAAASUVORK5CYII=;" vertex="1" parent="1">
          <mxGeometry x="655" y="206" width="13" height="12.16" as="geometry" />
        </mxCell>
        <mxCell id="r87C55WO3ufg_aptm7hn-23" value="" style="shape=image;verticalLabelPosition=bottom;labelBackgroundColor=default;verticalAlign=top;aspect=fixed;imageAspect=0;image=data:image/png,iVBORw0KGgoAAAANSUhEUgAAAHYAAABtCAYAAAB0tpVJAAAACXBIWXMAAA7EAAAOxAGVKw4bAAAF4klEQVR42u2dW4xeUxTH11ClRR88qKIPROKhqhXSG6VVQlKJS2jiAfFSmYY00ul1qEuq+iRaFXqJClKJJkLozLRjyrRmqsxECNFKSh8IKkZdenEra+fsxHF855tvn9nn7L3X/q/k//qdtfb/O+d3zj57r0PkRzSx5rPaWftY+6FC+oy1lXWjJ77SHay/IWv60Rdjn4EZVnXQF2NXwgyr2u2LsWNYT7LaWJ2sXlYfa69mh/oHDpQwAD/o3/9EH69LH9+muvRv96Vq+o71e4nGvkyBxUjWBH2j9WXBov9irWCd60E9o1jjWTewFrBe0jdAQzV2FQUcZ7P+KFD0wgBqG8uay+opaOw8Cjy+NSz4G9bJgdU4kdVhWOfskE0dVuCM3RBwvbezfmmwzotCNvbSApeomwK/Ql2in1EHq3NUyEUuMDT1GOs0Cj9m6hvAvDoHQi/wDUNj3yE5saZOnR+GXNiJDV6S0npYkLGjWUdy6nwt5MIuK8DXGSQrNufUuSbkoloMTT3KOkWYsbfm1NoSE193kLwYk1PrbSHz9ZChsQ+RzKg1QTM5Jr5eJdTY3TVqHQ2+hh+v13hWb4qFr10kN7J3xp/H9Py6XLCxGzO1dsbE1ysFG7s6U+tG8FVGPCHl6mTK17dIdqzN1HtXLHx9ULix60jAtGkRvk4XbuyLmXrPj4Gvhym8ZTCm0U7/XaQ3PAa+dpL8+CBV71ex8PWBCIz9IlVvTyx8vSICY39K1bs5xAJM1zcdDpU3BqHqO06BLxIHX/8fF2Zqbg6Rr6bvX1sjMHZ2pubrYuDr5Q7zVdsz7qdkmWiZMT9T8znS+fqrY7726zwU/8aXeJx7KPAlp6Z83e4R98p8szSCkq2nr1Kyv0c8X5c5zDd9Fql1v9Jnvirl6zSH+aaXquyAfflRZH7YFV9H6uNLXxnphK/bHOZ6M8WxMtIJX5c6zPd5imflRuV8neooV7U9Mz1v+zbss8dXtdv7JEe5NpPcnX3O+drhMNePSPbOPqd8XeIo12sorpWRlfN1iqM/YD/J3TlvPUznh13xdVGNXB6Bffb42u4gRzUPfKxGLjNhnz2+Lq44x6szjzfp3W4jYKE9vla12VdNV6pF6HkNLrthnz2+/kxJl7Yy4wzWfawDg+TyKOyzx9c2y8c/k5I3RHdS0iW1mxpvQTsL9tnjq+r921dQqk+x6lesejmojmZ/UvFWsr9R8oYHYYmvvmgn7MuPloCNBV8t8tUnga8W+XpgCHxNf3Pga83Y4+CrH3ydYTkHtfjsAj0BoaYL1YqMow3k8S7ss/f8WtVblLNYTw1yNq+Affb4WvUqheY6uVwL+/L5arr/1cUqwJ018lCTF6fCQnt8dbEKsNZZ2wP77PHV1Sr76TVyeQz22eOrq/6IF4Ov5T6/LvfEWPDVMl9d9W+aBb42Hqbzwy53sc3J5LIS9oXPVxX3UuDtAXx+fnXZH3F9Kg/1Xb3TYaE9vrrs39SXyqMX9tnjq8v+iGpdVfqFwOOwzx5fXfZvmpDJ5XrYZ+/51WV/xIWZ51fwVQhf01eXXbAvP0Lrj5j+tGcz7JPBVxVq6ctc1t2sE2CfvefXVgybTL5Ow7DJfH4djmGTx9dtGDKZfF2GYZPJ16kYNvAVEQhfOzBkMvm6FMMmk69TMGzy+OqyPyKiRL62Y8hk8nUJhk0mXydj2MBXRCB8bcOQyeTrYgybTL5OwrDJ42sV/RERDvi6FUMmk6+LMGz+xyTwVWa0Gpp6SJ/lCM/jfQpr/TCigRhX4DK8HsPmdzRR8nbG1NhNGDp/Q+1Ee4GKdRJVHcPHYgj9iGHajFso+W74AA2t96+aoHiakmYe4whbFksJNbjP6ZsapT30b7/fffoMq6LR8xH9hzlISY9hpX6dR7fObbvOFU2hGzA1xG7f+2Fd/dgQqLHfw7r6sS5QY7fAuvpxHiUvvNWlba/mWa/m2ZusV/Tdr/oDrGatKkFr9e9v0sfbkuL9ezqnT3WOH7OepeSjSFHHPxZVQxCLqUgXAAAAAElFTkSuQmCC;" vertex="1" parent="1">
          <mxGeometry x="298.35" y="218.16" width="21.65" height="20" as="geometry" />
        </mxCell>
      </root>
    </mxGraphModel>
  </diagram>
</mxfile>
